<svg xmlns="http://www.w3.org/2000/svg" width="266.362" height="104.58" viewBox="0 0 1308.96 513.93" shape-rendering="geometricPrecision" text-rendering="geometricPrecision" image-rendering="optimizeQuality" fill-rule="evenodd" clip-rule="evenodd"><defs><style>.fil49{fill:none}.fil65{fill:#ef7f1a}.fil0{fill:#79b715}.fil48{fill:#fcf9f7}.fil47{fill:#fcf7f2}.fil45{fill:#fcf5ef}.fil44{fill:#fcf3ea}.fil43{fill:#fcf1e8}.fil46{fill:#faece1}.fil42{fill:#faebdf}.fil41{fill:#fae7d7}.fil40{fill:#fae5d2}.fil39{fill:#fae1cb}.fil38{fill:#f7dac1}.fil37{fill:#f7d6b9}.fil36{fill:#f7d1af}.fil35{fill:#f5cba6}.fil34{fill:#f5c59b}.fil33{fill:#f2bd8e}.fil32{fill:#f2b885}.fil31{fill:#f0af76}.fil30{fill:#f0a869}.fil29{fill:#e69a57}.fil28{fill:#de914d}.fil27{fill:#db8e4b}.fil26{fill:#d68945}.fil25{fill:#d48642}.fil24{fill:#cf813c}.fil23{fill:#c97c38}.fil22{fill:#c77834}.fil21{fill:#bf712c}.fil20{fill:#ba6d29}.fil19{fill:#b36622}.fil18{fill:#ad601d}.fil17{fill:#a65a17}.fil2{fill:#1a0e03}.fil3{fill:#241304}.fil4{fill:#2e1805}.fil5{fill:#3b1f06}.fil6{fill:#422307}.fil7{fill:#4f2909}.fil8{fill:#572e0a}.fil9{fill:#63340b}.fil10{fill:#6b380c}.fil11{fill:#733c0d}.fil12{fill:#80430e}.fil13{fill:#87470f}.fil14{fill:#8f4b10}.fil15{fill:#964f10}.fil16{fill:#9e5311}</style></defs><g id="Слой_x0020_1"><g id="_302379482368"><path class="fil0" d="M1215.63 408.01l-41.14-6.33-30.88-5.27-32.43-5.61-34.03-5.83-35.66-5.94-37.32-5.96-39.05-5.86-40.8-5.68-42.59-5.38-44.44-4.99-46.31-4.51-48.24-3.92-50.21-3.24-52.23-2.47-54.29-1.6-56.4-.65-61.97-43.6 57.65.46 55.49 1.45 53.39 2.33 51.33 3.12 49.31 3.82 47.35 4.42 45.43 4.92 43.55 5.33 41.71 5.63 39.93 5.84 38.17 5.93 36.47 5.93 34.8 5.81 33.18 5.6 31.59 5.26 30.06 4.82 28.56 4.28 29.37 4.61z"/><path class="fil0" d="M0 334.43l68.2 33.24 74.24-11.15 72.84-8.34 71.45-5.74 70.09-3.35 68.72-1.15 67.32.83 65.92 2.61 64.47 4.19 62.98 5.56 61.45 6.71 59.83 7.66 58.15 8.37 56.39 8.88 54.54 9.14 52.59 9.17 50.53 8.97 48.36 8.52 46.08 7.81 42.25 6.6-.67-30.38-40.42-5.31-44.68-6.84-47.15-7.8-49.47-8.51-51.68-8.95-53.78-9.16-55.76-9.12-57.65-8.84-59.45-8.32-61.15-7.58-62.8-6.62-64.37-5.44-65.88-4.04-67.37-2.43-68.8-.62-70.23 1.41-71.64 3.64-73.05 6.08-74.48 8.72z"/><path d="M72.23 186.42v95.98h9.94v-86.32h72.23v-9.67H72.23zm219.61 32.46c0-9.48-1.68-15.81-5.04-18.99-3.36-3.18-9.92-4.77-19.68-4.77h-41.99c-9.3 0-15.88 1.68-19.75 5.04-3.87 3.36-5.8 9.6-5.8 18.71v30.66c0 9.12 1.84 15.26 5.53 18.44 3.68 3.18 10.36 4.76 20.02 4.76h41.99c10.04 0 16.66-1.52 19.89-4.56 3.22-3.04 4.83-9.25 4.83-18.64v-30.66zm9.94 30.66c0 13.26-2.58 22.14-7.73 26.65-4.7 4.14-13.63 6.21-26.79 6.21h-41.98c-13.07 0-22.28-2.42-27.62-7.25s-8.01-13.37-8.01-25.62V219.7c0-12.43 2.6-21.25 7.8-26.45 5.2-5.2 14.48-7.8 27.83-7.8h41.98c12.34 0 20.99 2.21 25.96 6.63 5.71 5.06 8.56 14.27 8.56 27.62v29.83zm35.93 32.87v-95.98h64.63c11.97 0 20.58 2.25 25.83 6.79 5.25 4.51 7.87 12.13 7.87 22.83 0 10.43-2.51 17.49-7.53 21.18-5.02 3.71-13.7 5.55-26.03 5.55h-54.83v39.64h-9.94zm9.94-49.3h57.73c8.1 0 13.49-1.01 16.16-3.04 3.04-2.33 4.56-7 4.56-14.02 0-7.3-1.5-12.45-4.49-15.44-2.99-3.02-8.08-4.51-15.26-4.51h-58.7v37.01zm228.45 49.3v-95.98h-19.2l-75.82 88.53h-.83v-88.53h-9.94v95.98h16.16l75.96-88.53h3.73v88.53h9.94zm34.27-27.07h9.94c0 6.17 1.89 10.66 5.66 13.47 3.78 2.81 10.13 4.21 19.06 4.21h41.98c9.67 0 16.34-1.31 20.03-3.96 3.68-2.62 5.52-7.69 5.52-15.17 0-5.09-1.11-8.93-3.31-11.51-2.67-3.15-6.95-4.72-12.85-4.72h-59.25v-9.67h56.49c6.54 0 10.98-.99 13.33-2.95 2.35-1.98 3.52-5.75 3.52-11.35 0-6.88-1.77-11.69-5.32-14.45-3.54-2.74-10.06-4.12-19.54-4.12h-40.6c-9.12 0-15.61 1.57-19.47 4.7-3.5 2.85-5.25 7.18-5.25 12.98h-9.94c0-18.23 11.6-27.35 34.8-27.35h40.6c11.88 0 20.71 2.49 26.52 7.43 5.43 4.58 8.15 11.07 8.15 19.43 0 6.33-1.15 11.14-3.45 14.46-1.84 2.65-4.51 4.49-8.01 5.5 4.79 1.66 8.24 4.31 10.36 7.96 2.12 3.64 3.18 8.93 3.18 15.86 0 9.41-2.72 16.21-8.15 20.35-5.43 4.17-14.5 6.24-27.21 6.24h-41.98c-12.43 0-21.34-2.23-26.72-6.7-5.39-4.47-8.08-11.35-8.08-20.65zm457.71 27.07v-95.98h9.94V228h85.07v-41.57h9.94v95.98h-9.94v-44.47h-85.07v44.47h-9.94zM1204 186.43h103.3v9.67h-46.82v86.32h-9.94V196.1H1204v-9.67z" fill="#2b2a29" fill-rule="nonzero" stroke="#2b2a29" stroke-width="3.28" stroke-miterlimit="22.926"/><path class="fil2" d="M994.29 191.83l20.55 38.03-2.63-4.84-20.59-38.1z"/><path class="fil3" d="M991.62 186.92l20.59 38.1-2.88-4.67-20.64-38.17z"/><path class="fil4" d="M988.69 182.18l20.64 38.17-3.15-4.49-20.69-38.23z"/><path class="fil5" d="M985.49 177.63l20.69 38.23-3.39-4.3-20.75-38.3z"/><path class="fil6" d="M982.04 173.26l20.75 38.3-3.63-4.12-20.82-38.34z"/><path class="fil7" d="M978.34 169.1l20.82 38.34-3.88-3.91-20.88-38.4z"/><path class="fil8" d="M974.4 165.13l20.88 38.4-4.1-3.71-20.96-38.44z"/><path class="fil9" d="M970.22 161.38l20.96 38.44-4.33-3.49-21.04-38.48z"/><path class="fil10" d="M965.81 157.85l21.04 38.48-4.54-3.27-21.14-38.52z"/><path class="fil11" d="M961.17 154.54l21.14 38.52-4.76-3.05-21.23-38.54z"/><path class="fil12" d="M956.32 151.47l21.23 38.54-4.97-2.8-21.33-38.58z"/><path class="fil13" d="M951.25 148.63l21.33 38.58-5.16-2.57-21.44-38.59z"/><path class="fil14" d="M945.98 146.05l21.44 38.59-5.36-2.31-21.56-38.61z"/><path class="fil15" d="M940.5 143.72l21.56 38.61-5.56-2.06-21.67-38.61z"/><path class="fil16" d="M934.83 141.66l21.67 38.61-5.73-1.79-21.8-38.62z"/><path class="fil17" d="M928.97 139.86l21.8 38.62-5.92-1.51-21.93-38.63z"/><path class="fil18" d="M922.92 138.34l21.93 38.63-6.09-1.24-22.06-38.63z"/><path class="fil19" d="M916.7 137.1l22.06 38.63-6.27-.96-22.19-38.61z"/><path class="fil20" d="M910.3 136.16l22.19 38.61-6.35-.65-22.34-38.6z"/><path class="fil21" d="M903.8 135.52l22.34 38.6-6.35-.35-22.49-38.57z"/><path class="fil22" d="M897.3 135.2l22.49 38.57-6.36-.04-22.63-38.55z"/><path class="fil23" d="M890.8 135.18l22.63 38.55-6.34.24-22.78-38.52z"/><path class="fil24" d="M884.31 135.45l22.78 38.52-6.32.53-22.93-38.49z"/><path class="fil25" d="M877.84 136.01l22.93 38.49-6.3.81-23.07-38.45z"/><path class="fil26" d="M871.4 136.86l23.07 38.45-6.26 1.08-23.22-38.41z"/><path class="fil26" d="M864.99 137.98l23.22 38.41-6.21 1.35-23.37-38.36z"/><path class="fil27" d="M858.63 139.38L882 177.74l-6.15 1.61-23.52-38.31z"/><path class="fil27" d="M852.33 141.04l23.52 38.31-6.1 1.86-23.67-38.26z"/><path class="fil28" d="M846.08 142.95l23.67 38.26-6.02 2.11-23.82-38.2z"/><path class="fil28" d="M839.91 145.12l23.82 38.2-5.93 2.35-23.97-38.14zM833.83 147.53l23.97 38.14-5.85 2.59-24.12-38.08z"/><path class="fil28" d="M827.83 150.18l24.12 38.08-5.75 2.81-24.26-38.01z"/><path class="fil27" d="M821.94 153.06l24.26 38.01-5.64 3.04-24.41-37.94zM816.15 156.17l24.41 37.94-5.52 3.27-24.56-37.87z"/><path class="fil26" d="M810.48 159.51l24.56 37.87-5.4 3.47-24.69-37.79z"/><path class="fil26" d="M804.95 163.06l24.69 37.79-5.26 3.68-24.84-37.71z"/><path class="fil25" d="M799.54 166.82l24.84 37.71-5.11 3.89-24.98-37.63z"/><path class="fil26" d="M794.29 170.79l24.98 37.63-4.96 4.08-25.12-37.54z"/><path class="fil29" d="M789.19 174.96l25.12 37.54-4.8 4.28-25.25-37.46z"/><path class="fil30" d="M784.26 179.32l25.25 37.46-4.62 4.46-25.38-37.36z"/><path class="fil31" d="M779.51 183.88l25.38 37.36-4.44 4.65-25.51-37.28z"/><path class="fil32" d="M774.94 188.61l25.51 37.28-4.25 4.82-25.64-37.18z"/><path class="fil33" d="M770.56 193.53l25.64 37.18-4.04 4.99-25.76-37.08z"/><path class="fil34" d="M766.4 198.62l25.76 37.08-3.83 5.17-25.88-36.99z"/><path class="fil35" d="M762.45 203.88l25.88 36.99-3.61 5.32-26-36.88z"/><path class="fil36" d="M758.72 209.31l26 36.88-3.38 5.48-26.11-36.78z"/><path class="fil37" d="M755.23 214.89l26.11 36.78-3.13 5.63-26.22-36.67z"/><path class="fil38" d="M751.99 220.63l26.22 36.67-2.88 5.78-26.32-36.56z"/><path class="fil39" d="M749.01 226.52l26.32 36.56-2.61 5.93-26.42-36.46z"/><path class="fil40" d="M746.3 232.55l26.42 36.46-2.34 6.06-26.51-36.35z"/><path class="fil41" d="M743.87 238.72l26.51 36.35-2.04 6.12-26.59-36.24z"/><path class="fil42" d="M741.75 244.95l26.59 36.24-1.69 6.1-26.68-36.13z"/><path class="fil43" d="M739.97 251.16l26.68 36.13-1.37 6.07-26.74-36.02z"/><path class="fil43" d="M738.54 257.34l26.74 36.02-1.04 6.04-26.81-35.92z"/><path class="fil44" d="M737.43 263.48l26.81 35.92-.72 5.99-26.86-35.81z"/><path class="fil45" d="M736.66 269.58l26.86 35.81-.4 5.94-26.91-35.71z"/><path class="fil44" d="M736.21 275.62l26.91 35.71-.08 5.88-26.95-35.61z"/><path class="fil45" d="M736.09 281.6l26.95 35.61.23 5.8-26.99-35.51z"/><path class="fil44" d="M736.28 287.5l26.99 35.51.53 5.73-27-35.42z"/><path class="fil44" d="M736.8 293.32l27 35.42.84 5.63-27.02-35.31z"/><path class="fil44" d="M737.62 299.06l27.02 35.31 1.14 5.54-27.03-35.22z"/><path class="fil46" d="M738.75 304.69l27.03 35.22 1.44 5.43-27.03-35.13z"/><path class="fil43" d="M740.19 310.21l27.03 35.13 1.73 5.32-27.03-35.05z"/><path class="fil44" d="M741.92 315.61l27.03 35.05 2.02 5.18-27.01-34.96z"/><path class="fil45" d="M743.96 320.88l27.01 34.96 2.31 5.06-27-34.88z"/><path class="fil47" d="M746.28 326.02l27 34.88 2.58 4.9L748.9 331z"/><path class="fil48" d="M748.9 331l26.96 34.8 2.87 4.76-26.93-34.73zM751.8 335.83l26.93 34.73 3.13 4.59-26.88-34.66z"/><path class="fil48" d="M754.98 340.49l26.88 34.66 3.41 4.41-26.83-34.59z"/><path class="fil49" d="M994.29 191.83l20.55 38.03-2.63-4.84-2.88-4.67-3.15-4.49-3.39-4.3-3.63-4.12-3.88-3.91-4.1-3.71-4.33-3.49-4.54-3.27-4.76-3.05-4.97-2.8-5.16-2.57-5.36-2.31-5.56-2.06-5.73-1.79-5.92-1.51-6.09-1.24-6.27-.96-6.35-.65-6.35-.35-6.36-.04-6.34.24-6.32.53-6.3.81-6.26 1.08-6.21 1.35-6.15 1.61-6.1 1.86-6.02 2.11-5.93 2.35-5.85 2.59-5.75 2.81-5.64 3.04-5.52 3.27-5.4 3.47-5.26 3.68-5.11 3.89-4.96 4.08-4.8 4.28-4.62 4.46-4.44 4.65-4.25 4.82-4.04 4.99-3.83 5.17-3.61 5.32-3.38 5.48-3.13 5.63-2.88 5.78-2.61 5.93-2.34 6.06-2.04 6.12-1.69 6.1-1.37 6.07-1.04 6.04-.72 5.99-.4 5.94-.08 5.88.23 5.8.53 5.73.84 5.63 1.14 5.54 1.44 5.43 1.73 5.32 2.02 5.18 2.31 5.06 2.58 4.9 2.87 4.76 3.13 4.59 3.41 4.41-26.83-34.59-3.46-4.48-3.18-4.66-2.9-4.83-2.62-4.98-2.32-5.14-2.04-5.27-1.73-5.4-1.44-5.52-1.13-5.63-.82-5.74-.52-5.82-.19-5.9.12-5.98.45-6.04.77-6.1 1.11-6.14 1.43-6.18 1.78-6.21 2.12-6.23 2.43-6.17 2.71-6.03 2.98-5.89 3.24-5.74 3.49-5.58 3.73-5.43 3.95-5.26 4.16-5.09 4.38-4.92 4.57-4.73 4.75-4.56 4.93-4.36 5.1-4.17 5.25-3.97 5.41-3.76 5.53-3.55 5.67-3.34 5.79-3.11 5.89-2.88 6-2.65 6.08-2.41 6.17-2.17 6.25-1.91 6.3-1.66 6.36-1.4 6.41-1.12 6.44-.85 6.47-.56 6.49-.27 6.5.02 6.5.32 6.5.64 6.4.94 6.22 1.24 6.05 1.52 5.86 1.8 5.67 2.06 5.48 2.33 5.27 2.58 5.07 2.84 4.85 3.07 4.64 3.31 4.41 3.53 4.18 3.75 3.94 3.97 3.7 4.16 3.45 4.37 3.2 4.55 2.93 4.74z"/><path fill="#7a400d" d="M678.42 329.08l28.56 34.6 2.44 1.6-28.5-34.57z"/><path class="fil19" d="M680.92 330.71l28.5 34.57 3.66.7-28.42-34.58z"/><path class="fil24" d="M684.66 331.4l28.42 34.58 4.84-.24-28.31-34.6z"/><path class="fil26" d="M689.61 331.14l28.31 34.6 5.97-1.23-28.17-34.64z"/><path class="fil27" d="M695.72 329.87l28.17 34.64 7.05-2.25-27.99-34.71z"/><path class="fil28" d="M702.95 327.55l27.99 34.71 8.1-3.3-27.78-34.8z"/><path class="fil28" d="M711.26 324.16l27.78 34.8 9.1-4.4-27.54-34.9z"/><path class="fil27" d="M720.6 319.66l27.54 34.9 10.05-5.52L730.92 314z"/><path class="fil27" d="M730.92 314l27.27 35.04 10.94-6.68-26.97-35.19z"/><path class="fil26" d="M742.16 307.17l26.97 35.19 11.8-7.87-26.64-35.37z"/><path class="fil26" d="M754.29 299.12l26.64 35.37 12.6-9.09-26.3-35.57z"/><path class="fil25" d="M767.23 289.83l26.3 35.57 13.34-10.33-25.92-35.8z"/><path class="fil26" d="M780.95 279.27l25.92 35.8 14.04-11.6-25.52-36.06z"/><path fill="#e39754" d="M795.39 267.41l25.52 36.06 14.67-12.89-25.11-36.33z"/><path fill="#f0a563" d="M810.47 254.25l25.11 36.33 15.24-14.21-24.66-36.63z"/><path class="fil30" d="M826.16 239.74l24.66 36.63 15.77-15.54-24.21-36.95z"/><path class="fil49" d="M678.42 329.08l28.56 34.6 2.44 1.6 3.66.7 4.84-.24 5.97-1.23 7.05-2.25 8.1-3.3 9.1-4.4 10.05-5.52 10.94-6.68 11.8-7.87 12.6-9.09 13.34-10.33 14.04-11.6 14.67-12.89 15.24-14.21 15.77-15.54-24.21-36.95-16.22 15.86-15.69 14.51-15.08 13.16-14.44 11.86-13.72 10.56-12.94 9.29-12.13 8.05-11.24 6.83-10.32 5.66-9.34 4.5-8.31 3.39-7.23 2.32-6.11 1.27-4.95.26-3.74-.69z"/><path fill="#5c300a" d="M847.9 450.54l25.35 32.92 5.11 5.05-25.25-32.84z"/><path fill="#82440e" d="M853.11 455.67l25.25 32.84 5.24 3.15-25.14-32.8z"/><path class="fil18" d="M858.46 458.86l25.14 32.8 5.24 1.21-25.02-32.79z"/><path class="fil25" d="M863.82 460.08l25.02 32.79 5.12-.73-24.88-32.82z"/><path class="fil27" d="M869.08 459.32l24.88 32.82 4.9-2.69-24.74-32.89z"/><path class="fil30" d="M874.12 456.56l24.74 32.89 4.56-4.65-24.61-32.99z"/><path class="fil35" d="M878.81 451.81l24.61 32.99 4.1-6.62-24.47-33.14z"/><path class="fil39" d="M883.05 445.04l24.47 33.14 3.51-8.58-24.33-33.31z"/><path fill="#fae9da" d="M886.7 436.29l24.33 33.31 2.84-10.53-24.2-33.53z"/><path class="fil46" d="M889.67 425.54l24.2 33.53 2.04-12.46-24.08-33.78z"/><path class="fil44" d="M891.83 412.83l24.08 33.78 1.14-14.37-23.98-34.06z"/><path class="fil45" d="M893.07 398.18l23.98 34.06.14-16.25-23.88-34.36z"/><path class="fil45" d="M893.31 381.63l23.88 34.36-.96-18.09-23.81-34.7z"/><path class="fil44" d="M892.42 363.2l23.81 34.7-2.16-19.9-23.75-35.05z"/><path class="fil45" d="M890.32 342.95L914.07 378l-3.43-21.64-23.71-35.44z"/><path class="fil43" d="M886.93 320.92l23.71 35.44-4.79-23.34-23.7-35.84zM882.15 297.18l23.7 35.84-6.22-24.97-23.7-36.26z"/><path class="fil43" d="M875.93 271.79l23.7 36.26-7.72-26.54-23.74-36.69z"/><path class="fil46" d="M868.17 244.82l23.74 36.69-9.28-28.04-23.79-37.13z"/><path class="fil49" d="M847.9 450.54l25.35 32.92 5.11 5.05 5.24 3.15 5.24 1.21 5.12-.73 4.9-2.69 4.56-4.65 4.1-6.62 3.51-8.58 2.84-10.53 2.04-12.46 1.14-14.37.14-16.25-.96-18.09-2.16-19.9-3.43-21.64-4.79-23.34-6.22-24.97-7.72-26.54-9.28-28.04-23.79-37.13 9.33 28.48 7.76 26.97 6.22 25.39 4.78 23.74 3.39 22.03 2.1 20.25.89 18.43-.24 16.55-1.24 14.65-2.16 12.71-2.97 10.75-3.65 8.75-4.24 6.77-4.69 4.75-5.04 2.76-5.26.76-5.36-1.22-5.35-3.19z"/><path class="fil2" d="M1040.43 163.46l19.35 38.67-3.26-5.82-19.4-38.75z"/><path class="fil3" d="M1037.12 157.56l19.4 38.75-3.57-5.6-19.46-38.83z"/><path class="fil4" d="M1033.49 151.88l19.46 38.83-3.88-5.39-19.52-38.91z"/><path class="fil5" d="M1029.55 146.41l19.52 38.91-4.17-5.16-19.6-38.97z"/><path class="fil6" d="M1025.3 141.19l19.6 38.97-4.47-4.93-19.68-39.03z"/><path class="fil7" d="M1020.75 136.2l19.68 39.03-4.75-4.68-19.77-39.1z"/><path class="fil8" d="M1015.91 131.45l19.77 39.1-5.02-4.44-19.87-39.14z"/><path class="fil9" d="M1010.79 126.97l19.87 39.14-5.3-4.17-19.97-39.19z"/><path class="fil10" d="M1005.39 122.75l19.97 39.19-5.55-3.9-20.08-39.23z"/><path class="fil11" d="M999.73 118.81l20.08 39.23-5.8-3.63-20.2-39.26z"/><path class="fil12" d="M993.81 115.15l20.2 39.26-6.05-3.34-20.33-39.29z"/><path class="fil13" d="M987.63 111.78l20.33 39.29-6.29-3.05-20.46-39.31z"/><path class="fil14" d="M981.21 108.71l20.46 39.31-6.52-2.74-20.6-39.34z"/><path class="fil15" d="M974.55 105.94l20.6 39.34-6.75-2.44-20.74-39.34z"/><path class="fil16" d="M967.66 103.5l20.74 39.34-6.96-2.12-20.89-39.34z"/><path class="fil17" d="M960.55 101.38l20.89 39.34-7.18-1.79-21.04-39.34z"/><path class="fil18" d="M953.22 99.59l21.04 39.34-7.38-1.45-21.21-39.34z"/><path class="fil19" d="M945.67 98.14l21.21 39.34-7.59-1.11-21.37-39.32z"/><path class="fil20" d="M937.92 97.05l21.37 39.32-7.68-.75-21.55-39.3z"/><path class="fil21" d="M930.06 96.32l21.55 39.3-7.69-.38-21.72-39.28z"/><path class="fil22" d="M922.2 95.96l21.72 39.28-7.68-.03-21.9-39.24z"/><path class="fil23" d="M914.34 95.97l21.9 39.24-7.67.32-22.07-39.21z"/><path class="fil24" d="M906.5 96.32l22.07 39.21-7.64.67-22.25-39.17z"/><path class="fil25" d="M898.68 97.03l22.25 39.17-7.59.99-22.44-39.12z"/><path class="fil26" d="M890.9 98.07l22.44 39.12-7.56 1.33-22.61-39.08zM883.17 99.44l22.61 39.08-7.49 1.63-22.79-39.01z"/><path class="fil27" d="M875.5 101.14l22.79 39.01-7.42 1.95-22.97-38.95zM867.9 103.15l22.97 38.95-7.35 2.25-23.15-38.89z"/><path class="fil28" d="M860.37 105.46l23.15 38.89-7.26 2.55-23.32-38.82z"/><path class="fil28" d="M852.94 108.08l23.32 38.82-7.15 2.83-23.51-38.75zM845.6 110.98l23.51 38.75-7.05 3.12-23.68-38.68zM838.38 114.17l23.68 38.68-6.93 3.39-23.85-38.59z"/><path class="fil27" d="M831.28 117.65l23.85 38.59-6.79 3.66-24.03-38.51zM824.31 121.39l24.03 38.51-6.66 3.92-24.2-38.42z"/><path class="fil26" d="M817.48 125.4l24.2 38.42-6.5 4.18-24.37-38.33zM810.81 129.67L835.18 168l-6.34 4.42-24.54-38.23z"/><path class="fil25" d="M804.3 134.19l24.54 38.23-6.16 4.67-24.71-38.14z"/><path class="fil26" d="M797.97 138.95l24.71 38.14-5.98 4.91-24.88-38.04z"/><path class="fil29" d="M791.82 143.96L816.7 182l-5.78 5.13-25.04-37.93z"/><path class="fil30" d="M785.88 149.2l25.04 37.93-5.58 5.37-25.19-37.83z"/><path class="fil31" d="M780.15 154.67l25.19 37.83-5.35 5.57-25.35-37.71z"/><path class="fil32" d="M774.64 160.36l25.35 37.71-5.12 5.8-25.51-37.61z"/><path class="fil33" d="M769.36 166.26l25.51 37.61-4.89 6-25.65-37.49z"/><path class="fil34" d="M764.33 172.38l25.65 37.49-4.62 6.2-25.8-37.37z"/><path class="fil35" d="M759.56 178.7l25.8 37.37-4.36 6.4-25.93-37.25z"/><path class="fil36" d="M755.07 185.22L781 222.47l-4.08 6.59-26.07-37.13z"/><path class="fil37" d="M750.85 191.93l26.07 37.13-3.79 6.77-26.19-37z"/><path class="fil38" d="M746.94 198.83l26.19 37-3.48 6.96-26.32-36.88z"/><path class="fil39" d="M743.33 205.91l26.32 36.88-3.17 7.13-26.44-36.76z"/><path class="fil40" d="M740.04 213.16l26.44 36.76-2.84 7.29-26.54-36.62z"/><path class="fil41" d="M737.1 220.59l26.54 36.62-2.46 7.37-26.65-36.49z"/><path class="fil42" d="M734.53 228.09l26.65 36.49-2.06 7.36-26.75-36.37z"/><path class="fil43" d="M732.37 235.57l26.75 36.37-1.67 7.32-26.83-36.24zM730.62 243.02l26.83 36.24-1.27 7.27-26.91-36.1z"/><path class="fil44" d="M729.27 250.43l26.91 36.1-.88 7.23-26.98-35.98z"/><path class="fil45" d="M728.32 257.78l26.98 35.98-.5 7.17-27.03-35.86z"/><path class="fil44" d="M727.77 265.07l27.03 35.86-.11 7.1-27.08-35.74z"/><path class="fil45" d="M727.61 272.29l27.08 35.74.26 7.01-27.12-35.61z"/><path class="fil44" d="M727.83 279.43l27.12 35.61.63 6.92-27.15-35.49zM728.43 286.47l27.15 35.49 1.01 6.82-27.18-35.38z"/><path class="fil44" d="M729.41 293.4l27.18 35.38 1.37 6.7-27.19-35.27z"/><path class="fil46" d="M730.77 300.21l27.19 35.27 1.73 6.58-27.19-35.16z"/><path class="fil43" d="M732.5 306.9l27.19 35.16 2.08 6.44-27.18-35.06z"/><path class="fil44" d="M734.59 313.44l27.18 35.06 2.44 6.29-27.17-34.95z"/><path class="fil45" d="M737.04 319.84l27.17 34.95 2.79 6.13-27.15-34.85z"/><path class="fil47" d="M739.85 326.07L767 360.92l3.12 5.96-27.1-34.76z"/><path class="fil48" d="M743.02 332.12l27.1 34.76 3.47 5.77-27.06-34.67zM746.53 337.98l27.06 34.67 3.81 5.58-27.01-34.58z"/><path class="fil48" d="M750.39 343.65l27.01 34.58 4.13 5.37-26.95-34.5z"/><path class="fil49" d="M1040.43 163.46l19.35 38.67-3.26-5.82-3.57-5.6-3.88-5.39-4.17-5.16-4.47-4.93-4.75-4.68-5.02-4.44-5.3-4.17-5.55-3.9-5.8-3.63-6.05-3.34-6.29-3.05-6.52-2.74-6.75-2.44-6.96-2.12-7.18-1.79-7.38-1.45-7.59-1.11-7.68-.75-7.69-.38-7.68-.03-7.67.32-7.64.67-7.59.99-7.56 1.33-7.49 1.63-7.42 1.95-7.35 2.25-7.26 2.55-7.15 2.83-7.05 3.12-6.93 3.39-6.79 3.66-6.66 3.92-6.5 4.18-6.34 4.42-6.16 4.67-5.98 4.91-5.78 5.13-5.58 5.37-5.35 5.57-5.12 5.8-4.89 6-4.62 6.2-4.36 6.4-4.08 6.59-3.79 6.77-3.48 6.96-3.17 7.13-2.84 7.29-2.46 7.37-2.06 7.36-1.67 7.32-1.27 7.27-.88 7.23-.5 7.17-.11 7.1.26 7.01.63 6.92 1.01 6.82 1.37 6.7 1.73 6.58 2.08 6.44 2.44 6.29 2.79 6.13 3.12 5.96 3.47 5.77 3.81 5.58 4.13 5.37-26.95-34.5-4.19-5.45-3.86-5.67-3.51-5.86-3.17-6.05-2.81-6.23-2.45-6.4-2.09-6.54-1.73-6.69-1.36-6.81-.98-6.93-.6-7.04-.22-7.14.16-7.22.55-7.29.95-7.35 1.35-7.41 1.75-7.45 2.16-7.48 2.57-7.5 2.94-7.43 3.29-7.25 3.61-7.08 3.91-6.9 4.22-6.71 4.49-6.52 4.77-6.32 5.03-6.12 5.28-5.9 5.51-5.69 5.73-5.47 5.94-5.24 6.15-5.01 6.33-4.76 6.51-4.52 6.67-4.27 6.83-4.01 6.97-3.74 7.1-3.48 7.22-3.19 7.34-2.9 7.43-2.62 7.53-2.31 7.6-2.01 7.67-1.7 7.73-1.37 7.78-1.04 7.82-.71 7.84-.35 7.86-.01 7.86.36 7.86.73 7.75 1.09 7.55 1.45 7.33 1.79 7.11 2.12 6.89 2.44 6.66 2.77 6.42 3.07 6.18 3.37 5.92 3.66 5.66 3.94 5.4 4.22 5.12 4.48 4.84 4.75 4.55 4.99 4.25 5.22 3.94 5.47 3.63 5.68z"/><path class="fil44" d="M851.05 199.01l23.88 37.39-5.49-25.93-23.84-37.79z"/><path class="fil43" d="M845.6 172.68l23.84 37.79-6.05-23.86-23.85-38.14z"/><path class="fil46" d="M839.54 148.47l23.85 38.14-6.53-21.83-23.87-38.47zM832.99 126.31l23.87 38.47-6.9-19.89-23.91-38.75z"/><path class="fil43" d="M826.05 106.14l23.91 38.75-7.19-18.01-23.96-39z"/><path class="fil44" d="M818.81 87.88l23.96 39-7.37-16.19-24.03-39.2z"/><path class="fil45" d="M811.37 71.49l24.03 39.2-7.47-14.41-24.11-39.38z"/><path class="fil47" d="M803.82 56.9l24.11 39.38-7.49-12.68-24.19-39.54z"/><path class="fil49" d="M851.05 199.01l23.88 37.39-5.49-25.93-6.05-23.86-6.53-21.83-6.9-19.89-7.19-18.01-7.37-16.19-7.47-14.41-7.49-12.68-24.19-39.54 7.57 12.84 7.55 14.59 7.44 16.39 7.24 18.26 6.94 20.17 6.55 22.16 6.06 24.21z"/><path fill="#331b06" d="M787.81 137.28l24.92 38.12 15.05 21.67-24.71-37.85z"/><path class="fil5" d="M803.07 159.22l24.71 37.85 17.44 23.5-24.46-37.54z"/><path fill="#402207" d="M820.76 183.03l24.46 37.54 20.01 25.39-24.16-37.19z"/><path class="fil49" d="M787.81 137.28l24.92 38.12 15.05 21.67 17.44 23.5 20.01 25.39-24.16-37.19-20.31-25.74-17.69-23.81z"/><path fill="#030200" d="M841.36 209.13l24.15 37.19-24.15-37.19z"/><path class="fil49" d="M865.51 246.32zm-24.15-37.19z"/><path class="fil5" d="M833.02 152.26l24.01 38.06 1.03 1.56 1.13 1.5-23.99-38.02-1.14-1.52z"/><path class="fil7" d="M835.2 155.36l23.99 38.02 1.21 1.44 1.3 1.38-23.94-37.99-1.33-1.39z"/><path class="fil9" d="M837.76 158.21l23.94 37.99 1.39 1.3 1.47 1.24-23.89-37.96-1.5-1.25z"/><path class="fil11" d="M840.67 160.78l23.89 37.96 1.56 1.16 1.64 1.08-23.83-37.94-1.67-1.09z"/><path class="fil13" d="M843.93 163.04l23.83 37.94 1.72 1 1.8.92-23.76-37.92-1.84-.92z"/><path class="fil15" d="M847.52 164.98l23.76 37.92 1.87.83 1.95.75-23.68-37.92-1.99-.74z"/><path class="fil17" d="M851.42 166.56l23.68 37.92 2.03.64 2.09.56-23.6-37.91-2.13-.55z"/><path class="fil19" d="M855.62 167.77l23.6 37.91 2.16.45 2.23.35-23.5-37.91-2.28-.35z"/><path class="fil21" d="M860.11 168.57l23.5 37.91 2.27.24 2.28.14-23.4-37.92-2.33-.13z"/><path class="fil23" d="M864.76 168.94l23.4 37.92 2.28.02 2.28-.08-23.3-37.94-2.33.09z"/><path class="fil25" d="M869.42 168.86l23.3 37.94 2.27-.18 2.27-.29-23.18-37.97-2.32.3z"/><path class="fil26" d="M874.08 168.36l23.18 37.97 2.26-.39 2.25-.48-23.08-38-2.3.5z"/><path class="fil27" d="M878.69 167.46l23.08 38 2.22-.58 2.2-.67-22.96-38.03-2.26.69z"/><path class="fil28" d="M883.23 166.18l22.96 38.03 2.18-.76 2.15-.85-22.86-38.08-2.2.87zM887.66 164.52l22.86 38.08 2.11-.93 2.07-1.02-22.75-38.13-2.12 1.05z"/><path class="fil27" d="M891.95 162.52l22.75 38.13 2.04-1.1 1.98-1.18-22.64-38.18-2.04 1.21z"/><path class="fil26" d="M896.08 160.19l22.64 38.18 1.94-1.25 1.89-1.33-22.54-38.24-1.94 1.36z"/><path class="fil26" d="M900.01 157.55l22.54 38.24 1.83-1.4 1.77-1.47-22.45-38.29-1.81 1.49z"/><path class="fil30" d="M903.7 154.63l22.45 38.29 1.7-1.53 1.64-1.6-22.35-38.36-1.68 1.63z"/><path class="fil32" d="M907.14 151.43l22.35 38.36 1.57-1.67 1.49-1.72-22.26-38.43-1.54 1.76z"/><path class="fil34" d="M910.29 147.97l22.26 38.43 1.41-1.78 1.33-1.83-22.18-38.5-1.37 1.87z"/><path class="fil36" d="M913.11 144.29l22.18 38.5 1.24-1.89 1.16-1.94-22.1-38.56-1.19 1.97z"/><path class="fil38" d="M915.59 140.4l22.1 38.56 1.06-1.98.96-2.03-22.03-38.64-1 2.07z"/><path class="fil40" d="M917.68 136.31l22.03 38.64.87-2.07.76-2.11-21.97-38.71-.79 2.14z"/><path class="fil42" d="M919.37 132.06l21.97 38.71.64-2.13.52-2.11-21.92-38.78-.54 2.14z"/><path class="fil43" d="M920.58 127.75l21.92 38.78.41-2.09.28-2.07-21.88-38.85-.3 2.1z"/><path class="fil45" d="M921.31 123.52l21.88 38.85.17-2.05.06-2.01-21.86-38.92-.07 2.05zM921.56 119.39l21.86 38.92-.06-1.99-.17-1.96-21.84-38.97.16 1.98z"/><path class="fil44" d="M921.35 115.39l21.84 38.97-.27-1.92-.38-1.88-21.84-39.03.38 1.91z"/><path class="fil46" d="M920.7 111.53l21.84 39.03-.49-1.84-.58-1.79-21.84-39.09.58 1.82z"/><path class="fil44" d="M919.63 107.84l21.84 39.09-.69-1.75-.78-1.69-21.86-39.14.79 1.72z"/><path class="fil45" d="M918.14 104.35L940 143.49l-.88-1.65-21.87-39.15z"/><path class="fil49" d="M833.02 152.26l24.01 38.06 1.03 1.56 1.13 1.5 1.21 1.44 1.3 1.38 1.39 1.3 1.47 1.24 1.56 1.16 1.64 1.08 1.72 1 1.8.92 1.87.83 1.95.75 2.03.64 2.09.56 2.16.45 2.23.35 2.27.24 2.28.14 2.28.02 2.28-.08 2.27-.18 2.27-.29 2.26-.39 2.25-.48 2.22-.58 2.2-.67 2.18-.76 2.15-.85 2.11-.93 2.07-1.02 2.04-1.1 1.98-1.18 1.94-1.25 1.89-1.33 1.83-1.4 1.77-1.47 1.7-1.53 1.64-1.6 1.57-1.67 1.49-1.72 1.41-1.78 1.33-1.83 1.24-1.89 1.16-1.94 1.06-1.98.96-2.03.87-2.07.76-2.11.64-2.13.52-2.11.41-2.09.28-2.07.17-2.05.06-2.01-.06-1.99-.17-1.96-.27-1.92-.38-1.88-.49-1.84-.58-1.79-.69-1.75-.78-1.69-.88-1.65-21.87-39.15.89 1.66.79 1.72.7 1.77.58 1.82.49 1.87.38 1.91.27 1.95.16 1.98.05 2.02-.07 2.05-.18 2.08-.3 2.1-.43 2.13-.54 2.14-.67 2.17-.79 2.14-.9 2.11-1 2.07-1.09 2.02-1.19 1.97-1.29 1.92-1.37 1.87-1.45 1.81-1.54 1.76-1.61 1.7-1.68 1.63-1.76 1.57-1.81 1.49-1.88 1.43-1.94 1.36-1.99 1.28-2.04 1.21-2.09 1.12-2.12 1.05-2.17.95-2.2.87-2.23.79-2.26.69-2.28.59-2.3.5-2.31.4-2.32.3-2.34.2-2.33.09-2.33-.01-2.33-.13-2.32-.24-2.28-.35-2.21-.45-2.13-.55-2.07-.66-1.99-.74-1.91-.84-1.84-.92-1.75-1.02-1.67-1.09-1.59-1.17-1.5-1.25-1.41-1.32-1.33-1.39-1.23-1.46-1.14-1.52z"/><path class="fil10" d="M858.84 216.34l23.79 37.13 13.26 10.17-23.54-37.01z"/><path fill="#6e3a0c" d="M872.35 226.63l23.54 37.01 12.22 8.69-23.3-36.92z"/><path fill="#783f0d" d="M884.81 235.41l23.3 36.92 11.19 7.26-23.08-36.82z"/><path class="fil12" d="M896.22 242.77l23.08 36.82 10.15 5.92-22.87-36.77z"/><path class="fil13" d="M906.58 248.74l22.87 36.77 9.12 4.63-22.68-36.72z"/><path fill="#914c10" d="M915.89 253.42l22.68 36.72 8.1 3.41-22.5-36.68z"/><path class="fil16" d="M924.17 256.87l22.5 36.68 7.1 2.29-22.35-36.68z"/><path class="fil18" d="M931.42 259.16l22.35 36.68 6.1 1.23-22.21-36.68z"/><path fill="#c27531" d="M937.66 260.39l22.21 36.68 5.12.25-22.08-36.69z"/><path class="fil25" d="M942.91 260.63l22.08 36.69 4.18-.63-21.99-36.71z"/><path class="fil28" d="M947.18 259.98l21.99 36.71 3.24-1.42-21.9-36.76z"/><path class="fil29" d="M950.51 258.51l21.9 36.76 2.33-2.14-21.83-36.8z"/><path fill="#f7d5b7" d="M952.91 256.33l21.83 36.8 1.45-2.76-21.78-36.86z"/><path class="fil43" d="M954.41 253.51l21.78 36.86.6-3.3-21.75-36.91z"/><path class="fil45" d="M955.04 250.16l21.75 36.91-.23-3.73-21.73-36.98z"/><path class="fil43" d="M954.83 246.36l21.73 36.98-1.02-4.09-21.74-37.04z"/><path class="fil43" d="M953.8 242.21l21.74 37.04-1.79-4.35-21.76-37.11z"/><path class="fil47" d="M951.99 237.79l21.76 37.11-2.52-4.53-21.8-37.18z"/><path class="fil49" d="M858.84 216.34l23.79 37.13 13.26 10.17 12.22 8.69 11.19 7.26 10.15 5.92 9.12 4.63 8.1 3.41 7.1 2.29 6.1 1.23 5.12.25 4.18-.63 3.24-1.42 2.33-2.14 1.45-2.76.6-3.3-.23-3.73-1.02-4.09-1.79-4.35-2.52-4.53-21.8-37.18 2.56 4.6 1.81 4.42 1.03 4.15.21 3.8-.63 3.35-1.5 2.82-2.4 2.18-3.33 1.47-4.27.65-5.25-.24-6.24-1.23-7.25-2.29-8.28-3.45-9.31-4.68-10.36-5.97-11.41-7.36-12.46-8.78z"/><g><path d="M837.54 394.66l8.26 1.09 8.3.67 8.33.25 8.35-.15 8.34-.55 8.33-.94 8.29-1.32 8.24-1.7 8.18-2.07 8.1-2.42 8-2.77 7.89-3.11 7.77-3.44 7.62-3.76 7.46-4.08 7.29-4.38 7.11-4.67 6.9-4.95 6.69-5.23 6.45-5.49 6.21-5.74 5.95-5.98 5.67-6.21 5.38-6.44 5.08-6.65 4.77-6.85 4.44-7.04 4.09-7.22 3.74-7.39 3.37-7.54 2.99-7.69 2.6-7.83 2.17-7.86 1.72-7.79 1.28-7.7.84-7.61.42-7.51.01-7.39-.4-7.26-.79-7.13-1.18-6.98-1.56-6.82-1.92-6.66-2.28-6.48-2.63-6.3-2.97-6.1-3.31-5.9-3.63-5.68-3.94-5.46-4.25-5.23-4.55-4.99-4.84-4.74-5.12-4.48-5.4-4.22-5.66-3.94-5.92-3.66-6.17-3.37-6.42-3.07-6.66-2.76-6.89-2.44-7.11-2.12-7.33-1.79-7.54-1.45-7.75-1.1-7.86-.73-7.86-.36-7.86.01-7.84.36-7.81.71-7.78 1.04-7.73 1.37-7.67 1.69-7.6 2.01-7.52 2.31-7.43 2.62-7.34 2.91-7.23 3.19-7.1 3.47-6.97 3.74-6.83 4.01-6.67 4.27-6.51 4.52-6.33 4.77-6.14 5.01-5.94 5.24-5.73 5.47-5.51 5.69-5.27 5.9-5.03 6.12-4.77 6.32-4.5 6.52-4.21 6.71-3.92 6.9-3.61 7.08-3.29 7.25-2.95 7.43-2.57 7.5-2.16 7.48-1.75 7.45-1.35 7.41-.95 7.36-.56 7.29-.16 7.22.22 7.13.61 7.04.98 6.93 1.36 6.81 1.73 6.69 2.09 6.55 2.45 6.39 2.81 6.23 3.16 6.05 3.51 5.87 3.86 5.66 4.2 5.45 4.53 5.22 4.86 4.99 5.18 4.73 5.5 4.47 5.82 4.19 6.12 3.9 6.42 3.6 6.72 3.28 7.01 2.95 7.29 2.61 7.57 2.25 7.84 1.88 8.1 1.5zm-10.99-12.37l6.76.88 6.8.54 6.82.2 6.83-.13 6.83-.46 6.81-.78 6.79-1.09 6.75-1.4 6.7-1.7 6.63-1.99 6.55-2.27 6.47-2.55 6.36-2.82 6.25-3.08 6.12-3.34 5.98-3.59 5.83-3.83 5.67-4.06 5.5-4.28 5.31-4.5 5.11-4.7 4.9-4.91 4.68-5.1 4.45-5.28 4.21-5.46 3.95-5.62 3.68-5.78 3.41-5.93 3.12-6.07 2.82-6.2 2.51-6.33 2.2-6.44 1.85-6.48 1.48-6.42 1.12-6.36.76-6.28.41-6.2.08-6.11-.26-6.01-.58-5.9-.9-5.79-1.21-5.66-1.52-5.52-1.81-5.38-2.1-5.23-2.39-5.07-2.66-4.91-2.93-4.73-3.2-4.55-3.45-4.36-3.7-4.17-3.94-3.96-4.18-3.75-4.41-3.53-4.64-3.31-4.85-3.07-5.07-2.83-5.27-2.58-5.48-2.33-5.67-2.07-5.86-1.8-6.05-1.52-6.23-1.24-6.4-.94-6.49-.64-6.5-.33-6.5-.02-6.49.27-6.47.56-6.44.85-6.41 1.12-6.36 1.39-6.31 1.66-6.24 1.91-6.17 2.17-6.09 2.41-6 2.65-5.9 2.88-5.79 3.11-5.67 3.33-5.54 3.55-5.4 3.76-5.25 3.97-5.1 4.17-4.93 4.36-4.75 4.55-4.57 4.74-4.37 4.92-4.17 5.09-3.95 5.26-3.73 5.43-3.49 5.58-3.24 5.74-2.98 5.89-2.71 6.03-2.43 6.17-2.12 6.23-1.78 6.21-1.44 6.18-1.1 6.14-.77 6.1-.45 6.04-.12 5.98.2 5.9.51 5.82.82 5.73 1.13 5.63 1.44 5.52 1.74 5.4 2.03 5.27 2.33 5.13 2.62 4.99 2.9 4.83 3.18 4.66 3.46 4.48 3.73 4.29 4 4.1 4.26 3.89 4.52 3.66 4.78 3.44 5.03 3.19 5.27 2.95 5.51 2.68 5.75 2.41 5.98 2.13 6.2 1.84 6.42 1.53 6.64 1.22z" fill="#fecc00"/><path class="fil65" d="M841.07 208.77L818.12 220l-21.04 10.9-19.18 10.53-17.37 10.14-15.6 9.7-13.87 9.24-12.19 8.74-10.55 8.2-8.94 7.62-7.38 7.01-5.85 6.36-4.36 5.67-2.91 4.94-1.5 4.17-.13 3.36 1.2 2.51 2.49 1.63 3.74.7 4.95-.27 6.11-1.27 7.23-2.31 8.31-3.39 9.34-4.5 10.32-5.66 11.25-6.84 12.12-8.05 12.95-9.29 13.72-10.56 14.43-11.86 15.09-13.17 15.69-14.51 16.22-15.86-6.26 26.8-4.82 25.42-3.46 23.99-2.18 22.51-.99 20.98.1 19.4 1.11 17.76 2.02 16.09 2.82 14.36 3.52 12.59 4.11 10.78 4.59 8.93 4.96 7.05 5.21 5.13 5.35 3.19 5.36 1.22 5.26-.76 5.04-2.76 4.69-4.76 4.23-6.76 3.66-8.76 2.96-10.74 2.16-12.71 1.25-14.65.23-16.56-.89-18.43-2.1-20.25-3.39-22.03-4.78-23.74-6.23-25.39-7.75-26.97-9.33-28.48 13.51 10.29 12.46 8.79 11.41 7.35 10.36 5.98 9.31 4.67 8.28 3.45 7.25 2.3 6.24 1.23 5.25.24 4.28-.66 3.33-1.46 2.4-2.18 1.5-2.82.63-3.35-.21-3.8-1.03-4.15-1.81-4.42-2.56-4.6-3.28-4.68-3.97-4.68-4.64-4.59-5.26-4.41-5.87-4.15-6.44-3.8-6.98-3.37-7.5-2.85-7.99-2.25-8.45-1.57-8.89-.81-9.31.04-9.71.96-10.09 1.97-5.46-26.34-6.05-24.21-6.55-22.16-6.94-20.17-7.24-18.25-7.44-16.39-7.55-14.59-7.57-12.84-7.51-11.13-7.36-9.46-7.12-7.83-6.8-6.23-6.4-4.66-5.91-3.11-5.34-1.58-4.68-.07-3.94 1.43-3.1 2.92-2.18 4.41-1.16 5.9-.04 7.39 1.17 8.89 2.5 10.41 3.93 11.95 5.48 13.52 7.15 15.12 8.96 16.75 10.91 18.43 13 20.16 15.26 21.95 17.69 23.81 20.31 25.74zm.29.36z"/><path class="fil65" d="M860.11 168.57l2.32.24 2.33.13 2.33.01 2.33-.09 2.34-.2 2.32-.3 2.31-.4 2.3-.5 2.28-.59 2.26-.69 2.23-.79 2.2-.87 2.17-.95 2.12-1.05 2.09-1.12 2.04-1.21 1.99-1.28 1.94-1.36 1.88-1.43 1.81-1.49 1.76-1.57 1.68-1.63 1.61-1.7 1.54-1.76 1.45-1.81 1.37-1.87 1.29-1.92 1.19-1.97 1.09-2.02 1-2.07.9-2.11.79-2.14.67-2.17.54-2.14.43-2.13.3-2.1.18-2.08.07-2.05-.05-2.02-.16-1.98-.27-1.95-.38-1.91-.49-1.87-.58-1.82-.7-1.77-.79-1.72-.89-1.66-.98-1.61-1.08-1.55-1.17-1.49-1.26-1.42-1.35-1.35-1.44-1.28-1.52-1.21-1.6-1.13-1.68-1.05-1.75-.97-1.84-.88-1.91-.8-1.98-.7-2.05-.62-2.12-.52-2.18-.41-2.25-.32-2.29-.21-2.29-.1h-2.3l-2.29.11-2.29.21-2.27.3-2.27.41-2.25.5-2.24.59-2.21.68-2.18.77-2.16.85-2.12.94-2.08 1.02-2.05 1.1-2 1.17-1.96 1.25-1.9 1.32-1.85 1.4-1.79 1.46-1.73 1.52-1.67 1.59-1.6 1.66-1.52 1.71-1.45 1.77-1.38 1.83-1.28 1.88-1.2 1.93-1.11 1.98-1.02 2.03-.92 2.08-.82 2.11-.7 2.14-.58 2.12-.47 2.1-.34 2.09-.22 2.07-.12 2.04v2.02l.12 1.98.22 1.96.33 1.91.44 1.88.55 1.84.64 1.79.75 1.74.85 1.7.95 1.64 1.04 1.58 1.14 1.52 1.23 1.46 1.33 1.39 1.41 1.32 1.5 1.25 1.59 1.17 1.67 1.09 1.75 1.02 1.84.92 1.91.84 1.99.74 2.07.66 2.13.55 2.21.45z"/></g><path d="M148.45 484.12h5.45l3.1-7.33c2.13-5.26 4.31-10.7 6.53-16.28 2.23-5.58 4.15-10.91 5.78-16 .56 0 1.38.08 2.44.2 1.07.14 1.85.2 2.35.2.56 0 1.38-.06 2.44-.2 1.06-.12 1.85-.2 2.35-.2 1.5 4.4 3.02 8.79 4.56 13.18 1.54 4.39 3.09 8.78 4.65 13.18.63 1.69 2.32 6.11 5.08 13.26h4.79c-.12.44-.23.99-.33 1.65-.09.66-.14 1.46-.14 2.4 0 .81.03 1.5.09 2.07.06.56.19 1.25.38 2.07h-.94c-1.38-1.5-3.53-2.33-6.44-2.49-2.91-.16-7.35-.24-13.3-.24h-8.18c-5.89 0-10.25.08-13.07.24-2.82.16-5.08.99-6.77 2.49h-.85c.13-.38.24-.94.33-1.69.09-.75.14-1.57.14-2.44 0-.75-.03-1.47-.09-2.16-.06-.69-.19-1.32-.38-1.88zm12.5 0h18.24l-8.74-26.73c-1.82 4.91-3.04 8.19-3.67 9.89-2.13 5.77-4.07 11.39-5.83 16.84zm90.95-39.58v28.68c3.13-3.97 6.39-8.49 9.78-13.59 2.57-3.9 5.7-8.93 9.4-15.09l4.89.28 4.7-.28v45.5c-.69 0-1.9-.08-3.62-.23-1.72-.16-2.68-.24-2.87-.24-1.07 0-1.88.01-2.44.06-.56.03-1.91.17-4.04.41v-29.05a220.75 220.75 0 00-10.53 14.71c-3.01 4.59-5.89 9.37-8.65 14.34-.31 0-1-.08-2.07-.23-1.07-.16-1.94-.24-2.63-.24-1.13 0-2.15.08-3.06.24-.91.16-1.52.23-1.83.23v-45.5c1.82.13 3.16.22 4.04.28.88.06 1.69.09 2.44.09 1.82 0 3.16-.03 4.04-.09 1.13-.19 1.94-.28 2.44-.28zm110.51 10.72c0 3.01-.96 5.36-2.87 7.05-1.91 1.69-4.59 2.7-8.04 3.01 4.2.56 7.46 1.74 9.78 3.53 2.32 1.79 3.48 4.47 3.48 8.04 0 4.26-2.1 7.62-6.3 10.06-4.2 2.44-9.43 3.67-15.7 3.67-3.89 0-7.44-.25-10.67-.75-3.23-.5-5.69-1.25-7.38-2.26.38-1.13.8-2.35 1.27-3.67.47-1.32.77-2.44.89-3.38h.75c1.13 1.76 2.85 3.06 5.17 3.9 2.32.85 4.86 1.27 7.62 1.27 3.26 0 5.92-.78 7.99-2.35 2.07-1.57 3.1-3.73 3.1-6.49 0-2.95-.88-5.12-2.63-6.53-1.76-1.41-4.14-2.12-7.15-2.12h-4.79v-5.36a67.573 67.573 0 004.83.19c2.48 0 4.36-.69 5.69-2.07s1.99-3.29 1.99-5.73c0-4.95-3.06-7.43-9.15-7.43-2.33 0-4.61.44-6.8 1.32-2.21.88-3.59 2.07-4.15 3.57h-.85c-.58-2.19-1.33-4.48-2.27-6.86 1.94-.75 4.48-1.33 7.62-1.74 3.14-.41 6.17-.61 9.12-.61 5.89 0 10.61 1 14.15 3.01 3.54 2.01 5.31 4.92 5.31 8.74zm82.77.85v25.76c0 1.63.34 2.76 1.03 3.39.69.63 1.97.94 3.86.94v2.16c-1.07.5-2.49 1.05-4.25 1.65-1.77.59-3.23.89-4.36.89-2.21 0-4.1-.6-5.72-1.79-1.6-1.19-2.79-2.88-3.54-5.08-1.25 2.19-2.93 3.89-5.06 5.08-2.12 1.19-4.44 1.79-6.93 1.79-4 0-7.21-1.07-9.65-3.2-2.43-2.13-3.65-5.2-3.65-9.21 0-4.2 1.38-7.36 4.12-9.49 2.26-1.76 6.55-3.42 12.93-4.98 1.5-.38 2.65-.69 3.46-.94 1.32-.44 2.44-.94 3.37-1.5.5-.5.86-1.03 1.08-1.6.22-.56.33-1.25.33-2.07 0-2.19-.92-4.12-2.76-5.78-1.85-1.66-3.89-2.49-6.14-2.49-2.68 0-5.27.75-7.76 2.26-2.07 1.25-3.29 2.44-3.65 3.57h-.66l-1.22-5.55c2.07-2.01 4.7-3.56 7.9-4.65 3.2-1.1 6.36-1.65 9.49-1.65 4.64 0 8.59.91 11.85 2.73 3.95 2.19 5.92 5.45 5.92 9.78zm-12.98 18.52v-9.12c-1.88.63-3.38 1.13-4.51 1.5-2.07.75-3.68 1.57-4.84 2.44-1.16.88-1.94 1.96-2.35 3.24-.41 1.29-.61 2.84-.61 4.65 0 2.01.39 3.74 1.17 5.22.78 1.47 2.08 2.21 3.9 2.21 2.7 0 4.64-1.1 5.83-3.29.94-1.69 1.41-3.98 1.41-6.86zm74.31-30.09v28.68c3.13-3.97 6.39-8.49 9.78-13.59 2.57-3.9 5.7-8.93 9.4-15.09l4.89.28 4.7-.28v45.5c-.69 0-1.9-.08-3.62-.23-1.72-.16-2.68-.24-2.87-.24-1.07 0-1.88.01-2.44.06-.56.03-1.91.17-4.04.41v-29.05a220.75 220.75 0 00-10.53 14.71c-3.01 4.59-5.89 9.37-8.65 14.34-.31 0-1-.08-2.07-.23-1.07-.16-1.94-.24-2.63-.24-1.13 0-2.15.08-3.06.24-.91.16-1.52.23-1.83.23v-45.5c1.82.13 3.16.22 4.04.28.88.06 1.69.09 2.44.09 1.82 0 3.16-.03 4.04-.09 1.13-.19 1.94-.28 2.44-.28zm-11.09-12.27l3.1-4.21c2.51 2.36 5.06 4.14 7.66 5.31 2.6 1.18 5.28 1.77 8.04 1.77 5.58 0 10.97-2.37 16.17-7.08l3.01 4.12a27.895 27.895 0 01-8.98 6.03c-3.35 1.39-6.78 2.1-10.29 2.1-3.45 0-6.74-.66-9.87-1.96-3.13-1.31-6.08-3.34-8.84-6.08zm100.07 12.27v18.71h15.79v-18.71c1.82.19 3.03.3 3.62.33.6.03 1.55.05 2.87.05 1.82 0 3.16-.03 4.04-.09 1.13-.19 1.94-.28 2.45-.28v45.5c-.69 0-1.9-.08-3.62-.23-1.72-.16-2.68-.24-2.87-.24-1.07 0-1.88.01-2.44.06-.56.03-1.91.17-4.04.41v-21.06H595.5v21.06c-.69 0-1.9-.08-3.62-.23-1.72-.16-2.68-.24-2.87-.24-1.07 0-1.88.01-2.44.06-.56.03-1.91.17-4.04.41v-45.5c1.82.13 3.16.22 4.04.28.88.06 1.69.09 2.44.09 1.82 0 3.16-.03 4.04-.09 1.13-.19 1.94-.28 2.44-.28zm74.69 29.15v-10.06h23.5v10.06h-23.5zm107.87-25.95l-3.57 9.78h-2.16c-.38-2.82-1.35-5.11-2.91-6.86-1.76-1.94-4.01-2.92-6.77-2.92-3.95 0-6.96 2.19-9.02 6.58-1.63 3.45-2.44 7.46-2.44 12.03 0 5.89 1.13 10.43 3.38 13.63 2.26 3.2 5.86 4.8 10.81 4.8 1.88 0 3.71-.39 5.5-1.18 1.79-.78 3.24-1.86 4.37-3.24l1.6 1.31-2.35 5.55c-1.13 1.13-3.02 2.02-5.69 2.68-2.66.66-4.97.99-6.91.99-7.46 0-13.38-1.94-17.77-5.83-4.58-4.07-6.86-9.71-6.86-16.92 0-7.52 2.24-13.49 6.72-17.91 4.48-4.42 10.48-6.63 18-6.63 2.88 0 5.74.33 8.55.99 2.82.66 5.33 1.71 7.52 3.15zm79.95 3.1c-2.44-.25-4.51-.46-6.21-.61-1.69-.16-4.45-.24-8.27-.24v40.05c-.69 0-1.9-.08-3.62-.23-1.72-.16-2.68-.24-2.87-.24-.69 0-1.91.08-3.67.24-1.76.16-2.7.23-2.82.23v-40.05c-4.2 0-7.02.06-8.46.19-2.13.31-4.1.53-5.92.66 0-.38.08-.97.24-1.79.16-.82.23-1.29.23-1.41 0-.44-.08-1.05-.23-1.83-.16-.78-.24-1.21-.24-1.27H858c0 .38-.08.96-.24 1.74-.16.78-.24 1.24-.24 1.36 0 .44.08 1.05.24 1.83.16.78.24 1.24.24 1.36zm45.45 63.08l11.94-24.26-18.99-45.13c.69 0 1.85.06 3.48.19 1.63.12 2.85.19 3.65.19.82 0 2.01-.06 3.57-.19 1.57-.13 2.76-.19 3.57-.19 1.25 3.51 2.6 7.18 4.04 11 1.74 4.64 4.15 10.67 7.22 18.13l3.62-9.57c2.38-6.52 4.75-13.04 7.13-19.56h7.7l-9.49 21.44c-3.95 9.09-7.33 17.02-10.15 23.79-3.2 7.71-6.33 15.76-9.4 24.16-.94-.19-1.91-.28-2.91-.28h-2.96c-.59 0-1.27.09-2.02.28zm73.37-29.8h5.45l3.1-7.33c2.13-5.26 4.31-10.7 6.53-16.28 2.23-5.58 4.15-10.91 5.78-16 .56 0 1.38.08 2.44.2 1.07.14 1.85.2 2.35.2.56 0 1.38-.06 2.44-.2 1.06-.12 1.85-.2 2.35-.2 1.5 4.4 3.02 8.79 4.56 13.18 1.54 4.39 3.09 8.78 4.65 13.18.63 1.69 2.32 6.11 5.08 13.26h4.79c-.12.44-.23.99-.33 1.65-.09.66-.14 1.46-.14 2.4 0 .81.03 1.5.09 2.07.06.56.19 1.25.38 2.07h-.94c-1.38-1.5-3.53-2.33-6.44-2.49-2.91-.16-7.35-.24-13.3-.24h-8.18c-5.89 0-10.25.08-13.07.24-2.82.16-5.08.99-6.77 2.49h-.85c.13-.38.24-.94.33-1.69.09-.75.14-1.57.14-2.44 0-.75-.03-1.47-.09-2.16-.06-.69-.19-1.32-.38-1.88zm12.5 0h18.24l-8.74-26.73c-1.82 4.91-3.04 8.19-3.67 9.89-2.13 5.77-4.07 11.39-5.83 16.84zm90.95-39.58v28.68c3.13-3.97 6.39-8.49 9.78-13.59 2.57-3.9 5.7-8.93 9.4-15.09l4.89.28 4.7-.28v45.5c-.69 0-1.9-.08-3.62-.23-1.72-.16-2.68-.24-2.87-.24-1.07 0-1.88.01-2.44.06-.56.03-1.91.17-4.04.41v-29.05a220.75 220.75 0 00-10.53 14.71c-3.01 4.59-5.89 9.37-8.65 14.34-.31 0-1-.08-2.07-.23-1.07-.16-1.94-.24-2.63-.24-1.13 0-2.15.08-3.06.24-.91.16-1.52.23-1.83.23v-45.5c1.82.13 3.16.22 4.04.28.88.06 1.69.09 2.44.09 1.82 0 3.16-.03 4.04-.09 1.13-.19 1.94-.28 2.44-.28zm79.29 45.03c-1.25 0-2.59.03-4 .11-1.41.08-2.71.19-3.9.35 2.26-2.84 4.7-6.02 7.33-9.54 3.26-4.4 5.74-7.74 7.43-10-2.95-.5-5.55-1.79-7.8-3.86-2.95-2.63-4.42-5.86-4.42-9.68 0-4.2 1.63-7.32 4.89-9.35 3.26-2.04 7.62-3.06 13.07-3.06h20.59v45.41c-.94-.12-1.94-.22-3.01-.28-1.06-.06-2.1-.09-3.1-.09-1.13 0-2.29.03-3.48.11s-2.32.19-3.38.35v-19.16h-.47c-1.44 1.94-3.38 4.87-5.83 8.77-2.19 3.46-4.36 6.93-6.49 10.39-1.13-.16-2.35-.27-3.67-.35-1.32-.08-2.57-.11-3.76-.11zm20.21-23.6v-16.26h-2.91c-2.76 0-5.01.67-6.77 2.01-1.76 1.35-2.63 3.23-2.63 5.66 0 2.74.92 4.86 2.77 6.36 1.85 1.49 4.06 2.24 6.63 2.24h2.91z" fill="#9d9e9e" fill-rule="nonzero"/><circle class="fil49" transform="matrix(2.22572 -.9951 .78485 1.81165 875.453 127.035)" r="20.26" stroke="#fefefe" stroke-width="3.28" stroke-miterlimit="22.926"/></g></g></svg>