<?xml version="1.0" encoding="UTF-8"?>
<!DOCTYPE svg PUBLIC "-//W3C//DTD SVG 1.1//EN" "http://www.w3.org/Graphics/SVG/1.1/DTD/svg11.dtd">
<!-- Creator: CorelDRAW 2020 (64-Bit) -->
<svg xmlns="http://www.w3.org/2000/svg" xml:space="preserve" width="70.475mm" height="27.67mm" version="1.1" style="shape-rendering:geometricPrecision; text-rendering:geometricPrecision; image-rendering:optimizeQuality; fill-rule:evenodd; clip-rule:evenodd"
viewBox="0 0 1308.96 513.93"
 xmlns:xlink="http://www.w3.org/1999/xlink"
 xmlns:xodm="http://www.corel.com/coreldraw/odm/2003">
 <defs>
  <style type="text/css">
   <![CDATA[
    .str1 {stroke:#FEFEFE;stroke-width:3.28;stroke-miterlimit:22.9256}
    .str0 {stroke:#2B2A29;stroke-width:3.28;stroke-miterlimit:22.9256}
    .fil49 {fill:none}
    .fil64 {fill:#FECC00}
    .fil65 {fill:#EF7F1A}
    .fil0 {fill:#79B715}
    .fil48 {fill:#FCF9F7}
    .fil47 {fill:#FCF7F2}
    .fil45 {fill:#FCF5EF}
    .fil44 {fill:#FCF3EA}
    .fil43 {fill:#FCF1E8}
    .fil46 {fill:#FAECE1}
    .fil42 {fill:#FAEBDF}
    .fil55 {fill:#FAE9DA}
    .fil41 {fill:#FAE7D7}
    .fil40 {fill:#FAE5D2}
    .fil39 {fill:#FAE1CB}
    .fil38 {fill:#F7DAC1}
    .fil37 {fill:#F7D6B9}
    .fil63 {fill:#F7D5B7}
    .fil36 {fill:#F7D1AF}
    .fil35 {fill:#F5CBA6}
    .fil34 {fill:#F5C59B}
    .fil33 {fill:#F2BD8E}
    .fil32 {fill:#F2B885}
    .fil31 {fill:#F0AF76}
    .fil30 {fill:#F0A869}
    .fil52 {fill:#F0A563}
    .fil29 {fill:#E69A57}
    .fil51 {fill:#E39754}
    .fil28 {fill:#DE914D}
    .fil27 {fill:#DB8E4B}
    .fil26 {fill:#D68945}
    .fil25 {fill:#D48642}
    .fil24 {fill:#CF813C}
    .fil23 {fill:#C97C38}
    .fil22 {fill:#C77834}
    .fil62 {fill:#C27531}
    .fil21 {fill:#BF712C}
    .fil20 {fill:#BA6D29}
    .fil19 {fill:#B36622}
    .fil18 {fill:#AD601D}
    .fil17 {fill:#A65A17}
    .fil58 {fill:#030200}
    .fil2 {fill:#1A0E03}
    .fil3 {fill:#241304}
    .fil4 {fill:#2E1805}
    .fil56 {fill:#331B06}
    .fil5 {fill:#3B1F06}
    .fil57 {fill:#402207}
    .fil6 {fill:#422307}
    .fil7 {fill:#4F2909}
    .fil8 {fill:#572E0A}
    .fil53 {fill:#5C300A}
    .fil9 {fill:#63340B}
    .fil10 {fill:#6B380C}
    .fil59 {fill:#6E3A0C}
    .fil11 {fill:#733C0D}
    .fil60 {fill:#783F0D}
    .fil50 {fill:#7A400D}
    .fil12 {fill:#80430E}
    .fil54 {fill:#82440E}
    .fil13 {fill:#87470F}
    .fil14 {fill:#8F4B10}
    .fil61 {fill:#914C10}
    .fil15 {fill:#964F10}
    .fil16 {fill:#9E5311}
    .fil66 {fill:#9D9E9E;fill-rule:nonzero}
    .fil1 {fill:#2B2A29;fill-rule:nonzero}
   ]]>
  </style>
 </defs>
 <g id="Слой_x0020_1">
  <metadata id="CorelCorpID_0Corel-Layer"/>
  <g id="_302379482368">
   <g>
    <polygon class="fil0" points="1215.63,408.01 1174.49,401.68 1143.61,396.41 1111.18,390.8 1077.15,384.97 1041.49,379.03 1004.17,373.07 965.12,367.21 924.32,361.53 881.73,356.15 837.29,351.16 790.98,346.65 742.74,342.73 692.53,339.49 640.3,337.02 586.01,335.42 529.61,334.77 467.64,291.17 525.29,291.63 580.78,293.08 634.17,295.41 685.5,298.53 734.81,302.35 782.16,306.77 827.59,311.69 871.14,317.02 912.85,322.65 952.78,328.49 990.95,334.42 1027.42,340.35 1062.22,346.16 1095.4,351.76 1126.99,357.02 1157.05,361.84 1185.61,366.12 1214.98,370.73 "/>
    <polygon class="fil0" points="-0,334.43 68.2,367.67 142.44,356.52 215.28,348.18 286.73,342.44 356.82,339.09 425.54,337.94 492.86,338.77 558.78,341.38 623.25,345.57 686.23,351.13 747.68,357.84 807.51,365.5 865.66,373.87 922.05,382.75 976.59,391.89 1029.18,401.06 1079.71,410.03 1128.07,418.55 1174.15,426.36 1216.4,432.96 1215.73,402.58 1175.31,397.27 1130.63,390.43 1083.48,382.63 1034.01,374.12 982.33,365.17 928.55,356.01 872.79,346.89 815.14,338.05 755.69,329.73 694.54,322.15 631.74,315.53 567.37,310.09 501.49,306.05 434.12,303.62 365.32,303 295.09,304.41 223.45,308.05 150.4,314.13 75.92,322.85 "/>
   </g>
   <path class="fil1 str0" d="M72.23 186.42l0 95.98 9.94 0 0 -86.32 72.23 0 0 -9.67 -82.17 0zm219.61 32.46c0,-9.48 -1.68,-15.81 -5.04,-18.99 -3.36,-3.18 -9.92,-4.77 -19.68,-4.77l-41.99 0c-9.3,0 -15.88,1.68 -19.75,5.04 -3.87,3.36 -5.8,9.6 -5.8,18.71l0 30.66c0,9.12 1.84,15.26 5.53,18.44 3.68,3.18 10.36,4.76 20.02,4.76l41.99 0c10.04,0 16.66,-1.52 19.89,-4.56 3.22,-3.04 4.83,-9.25 4.83,-18.64l0 -30.66zm9.94 30.66c0,13.26 -2.58,22.14 -7.73,26.65 -4.7,4.14 -13.63,6.21 -26.79,6.21l-41.98 0c-13.07,0 -22.28,-2.42 -27.62,-7.25 -5.34,-4.83 -8.01,-13.37 -8.01,-25.62l0 -29.83c0,-12.43 2.6,-21.25 7.8,-26.45 5.2,-5.2 14.48,-7.8 27.83,-7.8l41.98 0c12.34,0 20.99,2.21 25.96,6.63 5.71,5.06 8.56,14.27 8.56,27.62l0 29.83zm35.93 32.87l0 -95.98 64.63 0c11.97,0 20.58,2.25 25.83,6.79 5.25,4.51 7.87,12.13 7.87,22.83 0,10.43 -2.51,17.49 -7.53,21.18 -5.02,3.71 -13.7,5.55 -26.03,5.55l-54.83 0 0 39.64 -9.94 0zm9.94 -49.3l57.73 0c8.1,0 13.49,-1.01 16.16,-3.04 3.04,-2.33 4.56,-7 4.56,-14.02 0,-7.3 -1.5,-12.45 -4.49,-15.44 -2.99,-3.02 -8.08,-4.51 -15.26,-4.51l-58.7 0 0 37.01zm228.45 49.3l0 -95.98 -19.2 0 -75.82 88.53 -0.83 0 0 -88.53 -9.94 0 0 95.98 16.16 0 75.96 -88.53 3.73 0 0 88.53 9.94 0zm34.27 -27.07l9.94 0c0,6.17 1.89,10.66 5.66,13.47 3.78,2.81 10.13,4.21 19.06,4.21l41.98 0c9.67,0 16.34,-1.31 20.03,-3.96 3.68,-2.62 5.52,-7.69 5.52,-15.17 0,-5.09 -1.11,-8.93 -3.31,-11.51 -2.67,-3.15 -6.95,-4.72 -12.85,-4.72l-59.25 0 0 -9.67 56.49 0c6.54,0 10.98,-0.99 13.33,-2.95 2.35,-1.98 3.52,-5.75 3.52,-11.35 0,-6.88 -1.77,-11.69 -5.32,-14.45 -3.54,-2.74 -10.06,-4.12 -19.54,-4.12l-40.6 0c-9.12,0 -15.61,1.57 -19.47,4.7 -3.5,2.85 -5.25,7.18 -5.25,12.98l-9.94 0c0,-18.23 11.6,-27.35 34.8,-27.35l40.6 0c11.88,0 20.71,2.49 26.52,7.43 5.43,4.58 8.15,11.07 8.15,19.43 0,6.33 -1.15,11.14 -3.45,14.46 -1.84,2.65 -4.51,4.49 -8.01,5.5 4.79,1.66 8.24,4.31 10.36,7.96 2.12,3.64 3.18,8.93 3.18,15.86 0,9.41 -2.72,16.21 -8.15,20.35 -5.43,4.17 -14.5,6.24 -27.21,6.24l-41.98 0c-12.43,0 -21.34,-2.23 -26.72,-6.7 -5.39,-4.47 -8.08,-11.35 -8.08,-20.65zm457.71 27.07l0 -95.98 9.94 0 0 41.57 85.07 0 0 -41.57 9.94 0 0 95.98 -9.94 0 0 -44.47 -85.07 0 0 44.47 -9.94 0zm135.92 -95.98l103.3 0 0 9.67 -46.82 0 0 86.32 -9.94 0 0 -86.32 -46.54 0 0 -9.67z"/>
   <g>
    <polygon class="fil2" points="994.29,191.83 1014.84,229.86 1012.21,225.02 991.62,186.92 "/>
    <polygon class="fil3" points="991.62,186.92 1012.21,225.02 1009.33,220.35 988.69,182.18 "/>
    <polygon class="fil4" points="988.69,182.18 1009.33,220.35 1006.18,215.86 985.49,177.63 "/>
    <polygon class="fil5" points="985.49,177.63 1006.18,215.86 1002.79,211.56 982.04,173.26 "/>
    <polygon class="fil6" points="982.04,173.26 1002.79,211.56 999.16,207.44 978.34,169.1 "/>
    <polygon class="fil7" points="978.34,169.1 999.16,207.44 995.28,203.53 974.4,165.13 "/>
    <polygon class="fil8" points="974.4,165.13 995.28,203.53 991.18,199.82 970.22,161.38 "/>
    <polygon class="fil9" points="970.22,161.38 991.18,199.82 986.85,196.33 965.81,157.85 "/>
    <polygon class="fil10" points="965.81,157.85 986.85,196.33 982.31,193.06 961.17,154.54 "/>
    <polygon class="fil11" points="961.17,154.54 982.31,193.06 977.55,190.01 956.32,151.47 "/>
    <polygon class="fil12" points="956.32,151.47 977.55,190.01 972.58,187.21 951.25,148.63 "/>
    <polygon class="fil13" points="951.25,148.63 972.58,187.21 967.42,184.64 945.98,146.05 "/>
    <polygon class="fil14" points="945.98,146.05 967.42,184.64 962.06,182.33 940.5,143.72 "/>
    <polygon class="fil15" points="940.5,143.72 962.06,182.33 956.5,180.27 934.83,141.66 "/>
    <polygon class="fil16" points="934.83,141.66 956.5,180.27 950.77,178.48 928.97,139.86 "/>
    <polygon class="fil17" points="928.97,139.86 950.77,178.48 944.85,176.97 922.92,138.34 "/>
    <polygon class="fil18" points="922.92,138.34 944.85,176.97 938.76,175.73 916.7,137.1 "/>
    <polygon class="fil19" points="916.7,137.1 938.76,175.73 932.49,174.77 910.3,136.16 "/>
    <polygon class="fil20" points="910.3,136.16 932.49,174.77 926.14,174.12 903.8,135.52 "/>
    <polygon class="fil21" points="903.8,135.52 926.14,174.12 919.79,173.77 897.3,135.2 "/>
    <polygon class="fil22" points="897.3,135.2 919.79,173.77 913.43,173.73 890.8,135.18 "/>
    <polygon class="fil23" points="890.8,135.18 913.43,173.73 907.09,173.97 884.31,135.45 "/>
    <polygon class="fil24" points="884.31,135.45 907.09,173.97 900.77,174.5 877.84,136.01 "/>
    <polygon class="fil25" points="877.84,136.01 900.77,174.5 894.47,175.31 871.4,136.86 "/>
    <polygon class="fil26" points="871.4,136.86 894.47,175.31 888.21,176.39 864.99,137.98 "/>
    <polygon class="fil26" points="864.99,137.98 888.21,176.39 882,177.74 858.63,139.38 "/>
    <polygon class="fil27" points="858.63,139.38 882,177.74 875.85,179.35 852.33,141.04 "/>
    <polygon class="fil27" points="852.33,141.04 875.85,179.35 869.75,181.21 846.08,142.95 "/>
    <polygon class="fil28" points="846.08,142.95 869.75,181.21 863.73,183.32 839.91,145.12 "/>
    <polygon class="fil28" points="839.91,145.12 863.73,183.32 857.8,185.67 833.83,147.53 "/>
    <polygon class="fil28" points="833.83,147.53 857.8,185.67 851.95,188.26 827.83,150.18 "/>
    <polygon class="fil28" points="827.83,150.18 851.95,188.26 846.2,191.07 821.94,153.06 "/>
    <polygon class="fil27" points="821.94,153.06 846.2,191.07 840.56,194.11 816.15,156.17 "/>
    <polygon class="fil27" points="816.15,156.17 840.56,194.11 835.04,197.38 810.48,159.51 "/>
    <polygon class="fil26" points="810.48,159.51 835.04,197.38 829.64,200.85 804.95,163.06 "/>
    <polygon class="fil26" points="804.95,163.06 829.64,200.85 824.38,204.53 799.54,166.82 "/>
    <polygon class="fil25" points="799.54,166.82 824.38,204.53 819.27,208.42 794.29,170.79 "/>
    <polygon class="fil26" points="794.29,170.79 819.27,208.42 814.31,212.5 789.19,174.96 "/>
    <polygon class="fil29" points="789.19,174.96 814.31,212.5 809.51,216.78 784.26,179.32 "/>
    <polygon class="fil30" points="784.26,179.32 809.51,216.78 804.89,221.24 779.51,183.88 "/>
    <polygon class="fil31" points="779.51,183.88 804.89,221.24 800.45,225.89 774.94,188.61 "/>
    <polygon class="fil32" points="774.94,188.61 800.45,225.89 796.2,230.71 770.56,193.53 "/>
    <polygon class="fil33" points="770.56,193.53 796.2,230.71 792.16,235.7 766.4,198.62 "/>
    <polygon class="fil34" points="766.4,198.62 792.16,235.7 788.33,240.87 762.45,203.88 "/>
    <polygon class="fil35" points="762.45,203.88 788.33,240.87 784.72,246.19 758.72,209.31 "/>
    <polygon class="fil36" points="758.72,209.31 784.72,246.19 781.34,251.67 755.23,214.89 "/>
    <polygon class="fil37" points="755.23,214.89 781.34,251.67 778.21,257.3 751.99,220.63 "/>
    <polygon class="fil38" points="751.99,220.63 778.21,257.3 775.33,263.08 749.01,226.52 "/>
    <polygon class="fil39" points="749.01,226.52 775.33,263.08 772.72,269.01 746.3,232.55 "/>
    <polygon class="fil40" points="746.3,232.55 772.72,269.01 770.38,275.07 743.87,238.72 "/>
    <polygon class="fil41" points="743.87,238.72 770.38,275.07 768.34,281.19 741.75,244.95 "/>
    <polygon class="fil42" points="741.75,244.95 768.34,281.19 766.65,287.29 739.97,251.16 "/>
    <polygon class="fil43" points="739.97,251.16 766.65,287.29 765.28,293.36 738.54,257.34 "/>
    <polygon class="fil43" points="738.54,257.34 765.28,293.36 764.24,299.4 737.43,263.48 "/>
    <polygon class="fil44" points="737.43,263.48 764.24,299.4 763.52,305.39 736.66,269.58 "/>
    <polygon class="fil45" points="736.66,269.58 763.52,305.39 763.12,311.33 736.21,275.62 "/>
    <polygon class="fil44" points="736.21,275.62 763.12,311.33 763.04,317.21 736.09,281.6 "/>
    <polygon class="fil45" points="736.09,281.6 763.04,317.21 763.27,323.01 736.28,287.5 "/>
    <polygon class="fil44" points="736.28,287.5 763.27,323.01 763.8,328.74 736.8,293.32 "/>
    <polygon class="fil44" points="736.8,293.32 763.8,328.74 764.64,334.37 737.62,299.06 "/>
    <polygon class="fil44" points="737.62,299.06 764.64,334.37 765.78,339.91 738.75,304.69 "/>
    <polygon class="fil46" points="738.75,304.69 765.78,339.91 767.22,345.34 740.19,310.21 "/>
    <polygon class="fil43" points="740.19,310.21 767.22,345.34 768.95,350.66 741.92,315.61 "/>
    <polygon class="fil44" points="741.92,315.61 768.95,350.66 770.97,355.84 743.96,320.88 "/>
    <polygon class="fil45" points="743.96,320.88 770.97,355.84 773.28,360.9 746.28,326.02 "/>
    <polygon class="fil47" points="746.28,326.02 773.28,360.9 775.86,365.8 748.9,331 "/>
    <polygon class="fil48" points="748.9,331 775.86,365.8 778.73,370.56 751.8,335.83 "/>
    <polygon class="fil48" points="751.8,335.83 778.73,370.56 781.86,375.15 754.98,340.49 "/>
    <polygon class="fil48" points="754.98,340.49 781.86,375.15 785.27,379.56 758.44,344.97 "/>
    <polygon class="fil49" points="994.29,191.83 1014.84,229.86 1012.21,225.02 1009.33,220.35 1006.18,215.86 1002.79,211.56 999.16,207.44 995.28,203.53 991.18,199.82 986.85,196.33 982.31,193.06 977.55,190.01 972.58,187.21 967.42,184.64 962.06,182.33 956.5,180.27 950.77,178.48 944.85,176.97 938.76,175.73 932.49,174.77 926.14,174.12 919.79,173.77 913.43,173.73 907.09,173.97 900.77,174.5 894.47,175.31 888.21,176.39 882,177.74 875.85,179.35 869.75,181.21 863.73,183.32 857.8,185.67 851.95,188.26 846.2,191.07 840.56,194.11 835.04,197.38 829.64,200.85 824.38,204.53 819.27,208.42 814.31,212.5 809.51,216.78 804.89,221.24 800.45,225.89 796.2,230.71 792.16,235.7 788.33,240.87 784.72,246.19 781.34,251.67 778.21,257.3 775.33,263.08 772.72,269.01 770.38,275.07 768.34,281.19 766.65,287.29 765.28,293.36 764.24,299.4 763.52,305.39 763.12,311.33 763.04,317.21 763.27,323.01 763.8,328.74 764.64,334.37 765.78,339.91 767.22,345.34 768.95,350.66 770.97,355.84 773.28,360.9 775.86,365.8 778.73,370.56 781.86,375.15 785.27,379.56 758.44,344.97 754.98,340.49 751.8,335.83 748.9,331 746.28,326.02 743.96,320.88 741.92,315.61 740.19,310.21 738.75,304.69 737.62,299.06 736.8,293.32 736.28,287.5 736.09,281.6 736.21,275.62 736.66,269.58 737.43,263.48 738.54,257.34 739.97,251.16 741.75,244.95 743.87,238.72 746.3,232.55 749.01,226.52 751.99,220.63 755.23,214.89 758.72,209.31 762.45,203.88 766.4,198.62 770.56,193.53 774.94,188.61 779.51,183.88 784.26,179.32 789.19,174.96 794.29,170.79 799.54,166.82 804.95,163.06 810.48,159.51 816.15,156.17 821.94,153.06 827.83,150.18 833.83,147.53 839.91,145.12 846.08,142.95 852.33,141.04 858.63,139.38 864.99,137.98 871.4,136.86 877.84,136.01 884.31,135.45 890.8,135.18 897.3,135.2 903.8,135.52 910.3,136.16 916.7,137.1 922.92,138.34 928.97,139.86 934.83,141.66 940.5,143.72 945.98,146.05 951.25,148.63 956.32,151.47 961.17,154.54 965.81,157.85 970.22,161.38 974.4,165.13 978.34,169.1 982.04,173.26 985.49,177.63 988.69,182.18 991.62,186.92 "/>
    <polygon class="fil50" points="678.42,329.08 706.98,363.68 709.42,365.28 680.92,330.71 "/>
    <polygon class="fil19" points="680.92,330.71 709.42,365.28 713.08,365.98 684.66,331.4 "/>
    <polygon class="fil24" points="684.66,331.4 713.08,365.98 717.92,365.74 689.61,331.14 "/>
    <polygon class="fil26" points="689.61,331.14 717.92,365.74 723.89,364.51 695.72,329.87 "/>
    <polygon class="fil27" points="695.72,329.87 723.89,364.51 730.94,362.26 702.95,327.55 "/>
    <polygon class="fil28" points="702.95,327.55 730.94,362.26 739.04,358.96 711.26,324.16 "/>
    <polygon class="fil28" points="711.26,324.16 739.04,358.96 748.14,354.56 720.6,319.66 "/>
    <polygon class="fil27" points="720.6,319.66 748.14,354.56 758.19,349.04 730.92,314 "/>
    <polygon class="fil27" points="730.92,314 758.19,349.04 769.13,342.36 742.16,307.17 "/>
    <polygon class="fil26" points="742.16,307.17 769.13,342.36 780.93,334.49 754.29,299.12 "/>
    <polygon class="fil26" points="754.29,299.12 780.93,334.49 793.53,325.4 767.23,289.83 "/>
    <polygon class="fil25" points="767.23,289.83 793.53,325.4 806.87,315.07 780.95,279.27 "/>
    <polygon class="fil26" points="780.95,279.27 806.87,315.07 820.91,303.47 795.39,267.41 "/>
    <polygon class="fil51" points="795.39,267.41 820.91,303.47 835.58,290.58 810.47,254.25 "/>
    <polygon class="fil52" points="810.47,254.25 835.58,290.58 850.82,276.37 826.16,239.74 "/>
    <polygon class="fil30" points="826.16,239.74 850.82,276.37 866.59,260.83 842.38,223.88 "/>
    <polygon class="fil49" points="678.42,329.08 706.98,363.68 709.42,365.28 713.08,365.98 717.92,365.74 723.89,364.51 730.94,362.26 739.04,358.96 748.14,354.56 758.19,349.04 769.13,342.36 780.93,334.49 793.53,325.4 806.87,315.07 820.91,303.47 835.58,290.58 850.82,276.37 866.59,260.83 842.38,223.88 826.16,239.74 810.47,254.25 795.39,267.41 780.95,279.27 767.23,289.83 754.29,299.12 742.16,307.17 730.92,314 720.6,319.66 711.26,324.16 702.95,327.55 695.72,329.87 689.61,331.14 684.66,331.4 680.92,330.71 "/>
    <polygon class="fil53" points="847.9,450.54 873.25,483.46 878.36,488.51 853.11,455.67 "/>
    <polygon class="fil54" points="853.11,455.67 878.36,488.51 883.6,491.66 858.46,458.86 "/>
    <polygon class="fil18" points="858.46,458.86 883.6,491.66 888.84,492.87 863.82,460.08 "/>
    <polygon class="fil25" points="863.82,460.08 888.84,492.87 893.96,492.14 869.08,459.32 "/>
    <polygon class="fil27" points="869.08,459.32 893.96,492.14 898.86,489.45 874.12,456.56 "/>
    <polygon class="fil30" points="874.12,456.56 898.86,489.45 903.42,484.8 878.81,451.81 "/>
    <polygon class="fil35" points="878.81,451.81 903.42,484.8 907.52,478.18 883.05,445.04 "/>
    <polygon class="fil39" points="883.05,445.04 907.52,478.18 911.03,469.6 886.7,436.29 "/>
    <polygon class="fil55" points="886.7,436.29 911.03,469.6 913.87,459.07 889.67,425.54 "/>
    <polygon class="fil46" points="889.67,425.54 913.87,459.07 915.91,446.61 891.83,412.83 "/>
    <polygon class="fil44" points="891.83,412.83 915.91,446.61 917.05,432.24 893.07,398.18 "/>
    <polygon class="fil45" points="893.07,398.18 917.05,432.24 917.19,415.99 893.31,381.63 "/>
    <polygon class="fil45" points="893.31,381.63 917.19,415.99 916.23,397.9 892.42,363.2 "/>
    <polygon class="fil44" points="892.42,363.2 916.23,397.9 914.07,378 890.32,342.95 "/>
    <polygon class="fil45" points="890.32,342.95 914.07,378 910.64,356.36 886.93,320.92 "/>
    <polygon class="fil43" points="886.93,320.92 910.64,356.36 905.85,333.02 882.15,297.18 "/>
    <polygon class="fil43" points="882.15,297.18 905.85,333.02 899.63,308.05 875.93,271.79 "/>
    <polygon class="fil43" points="875.93,271.79 899.63,308.05 891.91,281.51 868.17,244.82 "/>
    <polygon class="fil46" points="868.17,244.82 891.91,281.51 882.63,253.47 858.84,216.34 "/>
    <polygon class="fil49" points="847.9,450.54 873.25,483.46 878.36,488.51 883.6,491.66 888.84,492.87 893.96,492.14 898.86,489.45 903.42,484.8 907.52,478.18 911.03,469.6 913.87,459.07 915.91,446.61 917.05,432.24 917.19,415.99 916.23,397.9 914.07,378 910.64,356.36 905.85,333.02 899.63,308.05 891.91,281.51 882.63,253.47 858.84,216.34 868.17,244.82 875.93,271.79 882.15,297.18 886.93,320.92 890.32,342.95 892.42,363.2 893.31,381.63 893.07,398.18 891.83,412.83 889.67,425.54 886.7,436.29 883.05,445.04 878.81,451.81 874.12,456.56 869.08,459.32 863.82,460.08 858.46,458.86 853.11,455.67 "/>
    <polygon class="fil2" points="1040.43,163.46 1059.78,202.13 1056.52,196.31 1037.12,157.56 "/>
    <polygon class="fil3" points="1037.12,157.56 1056.52,196.31 1052.95,190.71 1033.49,151.88 "/>
    <polygon class="fil4" points="1033.49,151.88 1052.95,190.71 1049.07,185.32 1029.55,146.41 "/>
    <polygon class="fil5" points="1029.55,146.41 1049.07,185.32 1044.9,180.16 1025.3,141.19 "/>
    <polygon class="fil6" points="1025.3,141.19 1044.9,180.16 1040.43,175.23 1020.75,136.2 "/>
    <polygon class="fil7" points="1020.75,136.2 1040.43,175.23 1035.68,170.55 1015.91,131.45 "/>
    <polygon class="fil8" points="1015.91,131.45 1035.68,170.55 1030.66,166.11 1010.79,126.97 "/>
    <polygon class="fil9" points="1010.79,126.97 1030.66,166.11 1025.36,161.94 1005.39,122.75 "/>
    <polygon class="fil10" points="1005.39,122.75 1025.36,161.94 1019.81,158.04 999.73,118.81 "/>
    <polygon class="fil11" points="999.73,118.81 1019.81,158.04 1014.01,154.41 993.81,115.15 "/>
    <polygon class="fil12" points="993.81,115.15 1014.01,154.41 1007.96,151.07 987.63,111.78 "/>
    <polygon class="fil13" points="987.63,111.78 1007.96,151.07 1001.67,148.02 981.21,108.71 "/>
    <polygon class="fil14" points="981.21,108.71 1001.67,148.02 995.15,145.28 974.55,105.94 "/>
    <polygon class="fil15" points="974.55,105.94 995.15,145.28 988.4,142.84 967.66,103.5 "/>
    <polygon class="fil16" points="967.66,103.5 988.4,142.84 981.44,140.72 960.55,101.38 "/>
    <polygon class="fil17" points="960.55,101.38 981.44,140.72 974.26,138.93 953.22,99.59 "/>
    <polygon class="fil18" points="953.22,99.59 974.26,138.93 966.88,137.48 945.67,98.14 "/>
    <polygon class="fil19" points="945.67,98.14 966.88,137.48 959.29,136.37 937.92,97.05 "/>
    <polygon class="fil20" points="937.92,97.05 959.29,136.37 951.61,135.62 930.06,96.32 "/>
    <polygon class="fil21" points="930.06,96.32 951.61,135.62 943.92,135.24 922.2,95.96 "/>
    <polygon class="fil22" points="922.2,95.96 943.92,135.24 936.24,135.21 914.34,95.97 "/>
    <polygon class="fil23" points="914.34,95.97 936.24,135.21 928.57,135.53 906.5,96.32 "/>
    <polygon class="fil24" points="906.5,96.32 928.57,135.53 920.93,136.2 898.68,97.03 "/>
    <polygon class="fil25" points="898.68,97.03 920.93,136.2 913.34,137.19 890.9,98.07 "/>
    <polygon class="fil26" points="890.9,98.07 913.34,137.19 905.78,138.52 883.17,99.44 "/>
    <polygon class="fil26" points="883.17,99.44 905.78,138.52 898.29,140.15 875.5,101.14 "/>
    <polygon class="fil27" points="875.5,101.14 898.29,140.15 890.87,142.1 867.9,103.15 "/>
    <polygon class="fil27" points="867.9,103.15 890.87,142.1 883.52,144.35 860.37,105.46 "/>
    <polygon class="fil28" points="860.37,105.46 883.52,144.35 876.26,146.9 852.94,108.08 "/>
    <polygon class="fil28" points="852.94,108.08 876.26,146.9 869.11,149.73 845.6,110.98 "/>
    <polygon class="fil28" points="845.6,110.98 869.11,149.73 862.06,152.85 838.38,114.17 "/>
    <polygon class="fil28" points="838.38,114.17 862.06,152.85 855.13,156.24 831.28,117.65 "/>
    <polygon class="fil27" points="831.28,117.65 855.13,156.24 848.34,159.9 824.31,121.39 "/>
    <polygon class="fil27" points="824.31,121.39 848.34,159.9 841.68,163.82 817.48,125.4 "/>
    <polygon class="fil26" points="817.48,125.4 841.68,163.82 835.18,168 810.81,129.67 "/>
    <polygon class="fil26" points="810.81,129.67 835.18,168 828.84,172.42 804.3,134.19 "/>
    <polygon class="fil25" points="804.3,134.19 828.84,172.42 822.68,177.09 797.97,138.95 "/>
    <polygon class="fil26" points="797.97,138.95 822.68,177.09 816.7,182 791.82,143.96 "/>
    <polygon class="fil29" points="791.82,143.96 816.7,182 810.92,187.13 785.88,149.2 "/>
    <polygon class="fil30" points="785.88,149.2 810.92,187.13 805.34,192.5 780.15,154.67 "/>
    <polygon class="fil31" points="780.15,154.67 805.34,192.5 799.99,198.07 774.64,160.36 "/>
    <polygon class="fil32" points="774.64,160.36 799.99,198.07 794.87,203.87 769.36,166.26 "/>
    <polygon class="fil33" points="769.36,166.26 794.87,203.87 789.98,209.87 764.33,172.38 "/>
    <polygon class="fil34" points="764.33,172.38 789.98,209.87 785.36,216.07 759.56,178.7 "/>
    <polygon class="fil35" points="759.56,178.7 785.36,216.07 781,222.47 755.07,185.22 "/>
    <polygon class="fil36" points="755.07,185.22 781,222.47 776.92,229.06 750.85,191.93 "/>
    <polygon class="fil37" points="750.85,191.93 776.92,229.06 773.13,235.83 746.94,198.83 "/>
    <polygon class="fil38" points="746.94,198.83 773.13,235.83 769.65,242.79 743.33,205.91 "/>
    <polygon class="fil39" points="743.33,205.91 769.65,242.79 766.48,249.92 740.04,213.16 "/>
    <polygon class="fil40" points="740.04,213.16 766.48,249.92 763.64,257.21 737.1,220.59 "/>
    <polygon class="fil41" points="737.1,220.59 763.64,257.21 761.18,264.58 734.53,228.09 "/>
    <polygon class="fil42" points="734.53,228.09 761.18,264.58 759.12,271.94 732.37,235.57 "/>
    <polygon class="fil43" points="732.37,235.57 759.12,271.94 757.45,279.26 730.62,243.02 "/>
    <polygon class="fil43" points="730.62,243.02 757.45,279.26 756.18,286.53 729.27,250.43 "/>
    <polygon class="fil44" points="729.27,250.43 756.18,286.53 755.3,293.76 728.32,257.78 "/>
    <polygon class="fil45" points="728.32,257.78 755.3,293.76 754.8,300.93 727.77,265.07 "/>
    <polygon class="fil44" points="727.77,265.07 754.8,300.93 754.69,308.03 727.61,272.29 "/>
    <polygon class="fil45" points="727.61,272.29 754.69,308.03 754.95,315.04 727.83,279.43 "/>
    <polygon class="fil44" points="727.83,279.43 754.95,315.04 755.58,321.96 728.43,286.47 "/>
    <polygon class="fil44" points="728.43,286.47 755.58,321.96 756.59,328.78 729.41,293.4 "/>
    <polygon class="fil44" points="729.41,293.4 756.59,328.78 757.96,335.48 730.77,300.21 "/>
    <polygon class="fil46" points="730.77,300.21 757.96,335.48 759.69,342.06 732.5,306.9 "/>
    <polygon class="fil43" points="732.5,306.9 759.69,342.06 761.77,348.5 734.59,313.44 "/>
    <polygon class="fil44" points="734.59,313.44 761.77,348.5 764.21,354.79 737.04,319.84 "/>
    <polygon class="fil45" points="737.04,319.84 764.21,354.79 767,360.92 739.85,326.07 "/>
    <polygon class="fil47" points="739.85,326.07 767,360.92 770.12,366.88 743.02,332.12 "/>
    <polygon class="fil48" points="743.02,332.12 770.12,366.88 773.59,372.65 746.53,337.98 "/>
    <polygon class="fil48" points="746.53,337.98 773.59,372.65 777.4,378.23 750.39,343.65 "/>
    <polygon class="fil48" points="750.39,343.65 777.4,378.23 781.53,383.6 754.58,349.1 "/>
    <polygon class="fil49" points="1040.43,163.46 1059.78,202.13 1056.52,196.31 1052.95,190.71 1049.07,185.32 1044.9,180.16 1040.43,175.23 1035.68,170.55 1030.66,166.11 1025.36,161.94 1019.81,158.04 1014.01,154.41 1007.96,151.07 1001.67,148.02 995.15,145.28 988.4,142.84 981.44,140.72 974.26,138.93 966.88,137.48 959.29,136.37 951.61,135.62 943.92,135.24 936.24,135.21 928.57,135.53 920.93,136.2 913.34,137.19 905.78,138.52 898.29,140.15 890.87,142.1 883.52,144.35 876.26,146.9 869.11,149.73 862.06,152.85 855.13,156.24 848.34,159.9 841.68,163.82 835.18,168 828.84,172.42 822.68,177.09 816.7,182 810.92,187.13 805.34,192.5 799.99,198.07 794.87,203.87 789.98,209.87 785.36,216.07 781,222.47 776.92,229.06 773.13,235.83 769.65,242.79 766.48,249.92 763.64,257.21 761.18,264.58 759.12,271.94 757.45,279.26 756.18,286.53 755.3,293.76 754.8,300.93 754.69,308.03 754.95,315.04 755.58,321.96 756.59,328.78 757.96,335.48 759.69,342.06 761.77,348.5 764.21,354.79 767,360.92 770.12,366.88 773.59,372.65 777.4,378.23 781.53,383.6 754.58,349.1 750.39,343.65 746.53,337.98 743.02,332.12 739.85,326.07 737.04,319.84 734.59,313.44 732.5,306.9 730.77,300.21 729.41,293.4 728.43,286.47 727.83,279.43 727.61,272.29 727.77,265.07 728.32,257.78 729.27,250.43 730.62,243.02 732.37,235.57 734.53,228.09 737.1,220.59 740.04,213.16 743.33,205.91 746.94,198.83 750.85,191.93 755.07,185.22 759.56,178.7 764.33,172.38 769.36,166.26 774.64,160.36 780.15,154.67 785.88,149.2 791.82,143.96 797.97,138.95 804.3,134.19 810.81,129.67 817.48,125.4 824.31,121.39 831.28,117.65 838.38,114.17 845.6,110.98 852.94,108.08 860.37,105.46 867.9,103.15 875.5,101.14 883.17,99.44 890.9,98.07 898.68,97.03 906.5,96.32 914.34,95.97 922.2,95.96 930.06,96.32 937.92,97.05 945.67,98.14 953.22,99.59 960.55,101.38 967.66,103.5 974.55,105.94 981.21,108.71 987.63,111.78 993.81,115.15 999.73,118.81 1005.39,122.75 1010.79,126.97 1015.91,131.45 1020.75,136.2 1025.3,141.19 1029.55,146.41 1033.49,151.88 1037.12,157.56 "/>
    <polygon class="fil44" points="851.05,199.01 874.93,236.4 869.44,210.47 845.6,172.68 "/>
    <polygon class="fil43" points="845.6,172.68 869.44,210.47 863.39,186.61 839.54,148.47 "/>
    <polygon class="fil46" points="839.54,148.47 863.39,186.61 856.86,164.78 832.99,126.31 "/>
    <polygon class="fil46" points="832.99,126.31 856.86,164.78 849.96,144.89 826.05,106.14 "/>
    <polygon class="fil43" points="826.05,106.14 849.96,144.89 842.77,126.88 818.81,87.88 "/>
    <polygon class="fil44" points="818.81,87.88 842.77,126.88 835.4,110.69 811.37,71.49 "/>
    <polygon class="fil45" points="811.37,71.49 835.4,110.69 827.93,96.28 803.82,56.9 "/>
    <polygon class="fil47" points="803.82,56.9 827.93,96.28 820.44,83.6 796.25,44.06 "/>
    <polygon class="fil49" points="851.05,199.01 874.93,236.4 869.44,210.47 863.39,186.61 856.86,164.78 849.96,144.89 842.77,126.88 835.4,110.69 827.93,96.28 820.44,83.6 796.25,44.06 803.82,56.9 811.37,71.49 818.81,87.88 826.05,106.14 832.99,126.31 839.54,148.47 845.6,172.68 "/>
    <polygon class="fil56" points="787.81,137.28 812.73,175.4 827.78,197.07 803.07,159.22 "/>
    <polygon class="fil5" points="803.07,159.22 827.78,197.07 845.22,220.57 820.76,183.03 "/>
    <polygon class="fil57" points="820.76,183.03 845.22,220.57 865.23,245.96 841.07,208.77 "/>
    <polygon class="fil49" points="787.81,137.28 812.73,175.4 827.78,197.07 845.22,220.57 865.23,245.96 841.07,208.77 820.76,183.03 803.07,159.22 "/>
    <polygon class="fil58" points="841.36,209.13 865.51,246.32 865.51,246.32 841.36,209.13 "/>
    <path class="fil49" d="M865.51 246.32l0 0zm-24.15 -37.19l0 0z"/>
    <polygon class="fil5" points="833.02,152.26 857.03,190.32 858.06,191.88 859.19,193.38 835.2,155.36 834.06,153.84 "/>
    <polygon class="fil7" points="835.2,155.36 859.19,193.38 860.4,194.82 861.7,196.2 837.76,158.21 836.43,156.82 "/>
    <polygon class="fil9" points="837.76,158.21 861.7,196.2 863.09,197.5 864.56,198.74 840.67,160.78 839.17,159.53 "/>
    <polygon class="fil11" points="840.67,160.78 864.56,198.74 866.12,199.9 867.76,200.98 843.93,163.04 842.26,161.95 "/>
    <polygon class="fil13" points="843.93,163.04 867.76,200.98 869.48,201.98 871.28,202.9 847.52,164.98 845.68,164.06 "/>
    <polygon class="fil15" points="847.52,164.98 871.28,202.9 873.15,203.73 875.1,204.48 851.42,166.56 849.43,165.82 "/>
    <polygon class="fil17" points="851.42,166.56 875.1,204.48 877.13,205.12 879.22,205.68 855.62,167.77 853.49,167.22 "/>
    <polygon class="fil19" points="855.62,167.77 879.22,205.68 881.38,206.13 883.61,206.48 860.11,168.57 857.83,168.22 "/>
    <polygon class="fil21" points="860.11,168.57 883.61,206.48 885.88,206.72 888.16,206.86 864.76,168.94 862.43,168.81 "/>
    <polygon class="fil23" points="864.76,168.94 888.16,206.86 890.44,206.88 892.72,206.8 869.42,168.86 867.09,168.95 "/>
    <polygon class="fil25" points="869.42,168.86 892.72,206.8 894.99,206.62 897.26,206.33 874.08,168.36 871.76,168.66 "/>
    <polygon class="fil26" points="874.08,168.36 897.26,206.33 899.52,205.94 901.77,205.46 878.69,167.46 876.39,167.96 "/>
    <polygon class="fil27" points="878.69,167.46 901.77,205.46 903.99,204.88 906.19,204.21 883.23,166.18 880.97,166.87 "/>
    <polygon class="fil28" points="883.23,166.18 906.19,204.21 908.37,203.45 910.52,202.6 887.66,164.52 885.46,165.39 "/>
    <polygon class="fil28" points="887.66,164.52 910.52,202.6 912.63,201.67 914.7,200.65 891.95,162.52 889.83,163.57 "/>
    <polygon class="fil27" points="891.95,162.52 914.7,200.65 916.74,199.55 918.72,198.37 896.08,160.19 894.04,161.4 "/>
    <polygon class="fil26" points="896.08,160.19 918.72,198.37 920.66,197.12 922.55,195.79 900.01,157.55 898.07,158.91 "/>
    <polygon class="fil26" points="900.01,157.55 922.55,195.79 924.38,194.39 926.15,192.92 903.7,154.63 901.89,156.12 "/>
    <polygon class="fil30" points="903.7,154.63 926.15,192.92 927.85,191.39 929.49,189.79 907.14,151.43 905.46,153.06 "/>
    <polygon class="fil32" points="907.14,151.43 929.49,189.79 931.06,188.12 932.55,186.4 910.29,147.97 908.75,149.73 "/>
    <polygon class="fil34" points="910.29,147.97 932.55,186.4 933.96,184.62 935.29,182.79 913.11,144.29 911.74,146.16 "/>
    <polygon class="fil36" points="913.11,144.29 935.29,182.79 936.53,180.9 937.69,178.96 915.59,140.4 914.4,142.37 "/>
    <polygon class="fil38" points="915.59,140.4 937.69,178.96 938.75,176.98 939.71,174.95 917.68,136.31 916.68,138.38 "/>
    <polygon class="fil40" points="917.68,136.31 939.71,174.95 940.58,172.88 941.34,170.77 919.37,132.06 918.58,134.2 "/>
    <polygon class="fil42" points="919.37,132.06 941.34,170.77 941.98,168.64 942.5,166.53 920.58,127.75 920.04,129.89 "/>
    <polygon class="fil43" points="920.58,127.75 942.5,166.53 942.91,164.44 943.19,162.37 921.31,123.52 921.01,125.62 "/>
    <polygon class="fil45" points="921.31,123.52 943.19,162.37 943.36,160.32 943.42,158.31 921.56,119.39 921.49,121.44 "/>
    <polygon class="fil45" points="921.56,119.39 943.42,158.31 943.36,156.32 943.19,154.36 921.35,115.39 921.51,117.37 "/>
    <polygon class="fil44" points="921.35,115.39 943.19,154.36 942.92,152.44 942.54,150.56 920.7,111.53 921.08,113.44 "/>
    <polygon class="fil46" points="920.7,111.53 942.54,150.56 942.05,148.72 941.47,146.93 919.63,107.84 920.21,109.66 "/>
    <polygon class="fil44" points="919.63,107.84 941.47,146.93 940.78,145.18 940,143.49 918.14,104.35 918.93,106.07 "/>
    <polygon class="fil45" points="918.14,104.35 940,143.49 939.12,141.84 917.25,102.69 "/>
    <polygon class="fil49" points="833.02,152.26 857.03,190.32 858.06,191.88 859.19,193.38 860.4,194.82 861.7,196.2 863.09,197.5 864.56,198.74 866.12,199.9 867.76,200.98 869.48,201.98 871.28,202.9 873.15,203.73 875.1,204.48 877.13,205.12 879.22,205.68 881.38,206.13 883.61,206.48 885.88,206.72 888.16,206.86 890.44,206.88 892.72,206.8 894.99,206.62 897.26,206.33 899.52,205.94 901.77,205.46 903.99,204.88 906.19,204.21 908.37,203.45 910.52,202.6 912.63,201.67 914.7,200.65 916.74,199.55 918.72,198.37 920.66,197.12 922.55,195.79 924.38,194.39 926.15,192.92 927.85,191.39 929.49,189.79 931.06,188.12 932.55,186.4 933.96,184.62 935.29,182.79 936.53,180.9 937.69,178.96 938.75,176.98 939.71,174.95 940.58,172.88 941.34,170.77 941.98,168.64 942.5,166.53 942.91,164.44 943.19,162.37 943.36,160.32 943.42,158.31 943.36,156.32 943.19,154.36 942.92,152.44 942.54,150.56 942.05,148.72 941.47,146.93 940.78,145.18 940,143.49 939.12,141.84 917.25,102.69 918.14,104.35 918.93,106.07 919.63,107.84 920.21,109.66 920.7,111.53 921.08,113.44 921.35,115.39 921.51,117.37 921.56,119.39 921.49,121.44 921.31,123.52 921.01,125.62 920.58,127.75 920.04,129.89 919.37,132.06 918.58,134.2 917.68,136.31 916.68,138.38 915.59,140.4 914.4,142.37 913.11,144.29 911.74,146.16 910.29,147.97 908.75,149.73 907.14,151.43 905.46,153.06 903.7,154.63 901.89,156.12 900.01,157.55 898.07,158.91 896.08,160.19 894.04,161.4 891.95,162.52 889.83,163.57 887.66,164.52 885.46,165.39 883.23,166.18 880.97,166.87 878.69,167.46 876.39,167.96 874.08,168.36 871.76,168.66 869.42,168.86 867.09,168.95 864.76,168.94 862.43,168.81 860.11,168.57 857.83,168.22 855.62,167.77 853.49,167.22 851.42,166.56 849.43,165.82 847.52,164.98 845.68,164.06 843.93,163.04 842.26,161.95 840.67,160.78 839.17,159.53 837.76,158.21 836.43,156.82 835.2,155.36 834.06,153.84 "/>
    <polygon class="fil10" points="858.84,216.34 882.63,253.47 895.89,263.64 872.35,226.63 "/>
    <polygon class="fil59" points="872.35,226.63 895.89,263.64 908.11,272.33 884.81,235.41 "/>
    <polygon class="fil60" points="884.81,235.41 908.11,272.33 919.3,279.59 896.22,242.77 "/>
    <polygon class="fil12" points="896.22,242.77 919.3,279.59 929.45,285.51 906.58,248.74 "/>
    <polygon class="fil13" points="906.58,248.74 929.45,285.51 938.57,290.14 915.89,253.42 "/>
    <polygon class="fil61" points="915.89,253.42 938.57,290.14 946.67,293.55 924.17,256.87 "/>
    <polygon class="fil16" points="924.17,256.87 946.67,293.55 953.77,295.84 931.42,259.16 "/>
    <polygon class="fil18" points="931.42,259.16 953.77,295.84 959.87,297.07 937.66,260.39 "/>
    <polygon class="fil62" points="937.66,260.39 959.87,297.07 964.99,297.32 942.91,260.63 "/>
    <polygon class="fil25" points="942.91,260.63 964.99,297.32 969.17,296.69 947.18,259.98 "/>
    <polygon class="fil28" points="947.18,259.98 969.17,296.69 972.41,295.27 950.51,258.51 "/>
    <polygon class="fil29" points="950.51,258.51 972.41,295.27 974.74,293.13 952.91,256.33 "/>
    <polygon class="fil63" points="952.91,256.33 974.74,293.13 976.19,290.37 954.41,253.51 "/>
    <polygon class="fil43" points="954.41,253.51 976.19,290.37 976.79,287.07 955.04,250.16 "/>
    <polygon class="fil45" points="955.04,250.16 976.79,287.07 976.56,283.34 954.83,246.36 "/>
    <polygon class="fil43" points="954.83,246.36 976.56,283.34 975.54,279.25 953.8,242.21 "/>
    <polygon class="fil43" points="953.8,242.21 975.54,279.25 973.75,274.9 951.99,237.79 "/>
    <polygon class="fil47" points="951.99,237.79 973.75,274.9 971.23,270.37 949.43,233.19 "/>
    <polygon class="fil49" points="858.84,216.34 882.63,253.47 895.89,263.64 908.11,272.33 919.3,279.59 929.45,285.51 938.57,290.14 946.67,293.55 953.77,295.84 959.87,297.07 964.99,297.32 969.17,296.69 972.41,295.27 974.74,293.13 976.19,290.37 976.79,287.07 976.56,283.34 975.54,279.25 973.75,274.9 971.23,270.37 949.43,233.19 951.99,237.79 953.8,242.21 954.83,246.36 955.04,250.16 954.41,253.51 952.91,256.33 950.51,258.51 947.18,259.98 942.91,260.63 937.66,260.39 931.42,259.16 924.17,256.87 915.89,253.42 906.58,248.74 896.22,242.77 884.81,235.41 872.35,226.63 "/>
   </g>
   <g>
    <path class="fil64" d="M837.54 394.66l8.26 1.09 8.3 0.67 8.33 0.25 8.35 -0.15 8.34 -0.55 8.33 -0.94 8.29 -1.32 8.24 -1.7 8.18 -2.07 8.1 -2.42 8 -2.77 7.89 -3.11 7.77 -3.44 7.62 -3.76 7.46 -4.08 7.29 -4.38 7.11 -4.67 6.9 -4.95 6.69 -5.23 6.45 -5.49 6.21 -5.74 5.95 -5.98 5.67 -6.21 5.38 -6.44 5.08 -6.65 4.77 -6.85 4.44 -7.04 4.09 -7.22 3.74 -7.39 3.37 -7.54 2.99 -7.69 2.6 -7.83 2.17 -7.86 1.72 -7.79 1.28 -7.7 0.84 -7.61 0.42 -7.51 0.01 -7.39 -0.4 -7.26 -0.79 -7.13 -1.18 -6.98 -1.56 -6.82 -1.92 -6.66 -2.28 -6.48 -2.63 -6.3 -2.97 -6.1 -3.31 -5.9 -3.63 -5.68 -3.94 -5.46 -4.25 -5.23 -4.55 -4.99 -4.84 -4.74 -5.12 -4.48 -5.4 -4.22 -5.66 -3.94 -5.92 -3.66 -6.17 -3.37 -6.42 -3.07 -6.66 -2.76 -6.89 -2.44 -7.11 -2.12 -7.33 -1.79 -7.54 -1.45 -7.75 -1.1 -7.86 -0.73 -7.86 -0.36 -7.86 0.01 -7.84 0.36 -7.81 0.71 -7.78 1.04 -7.73 1.37 -7.67 1.69 -7.6 2.01 -7.52 2.31 -7.43 2.62 -7.34 2.91 -7.23 3.19 -7.1 3.47 -6.97 3.74 -6.83 4.01 -6.67 4.27 -6.51 4.52 -6.33 4.77 -6.14 5.01 -5.94 5.24 -5.73 5.47 -5.51 5.69 -5.27 5.9 -5.03 6.12 -4.77 6.32 -4.5 6.52 -4.21 6.71 -3.92 6.9 -3.61 7.08 -3.29 7.25 -2.95 7.43 -2.57 7.5 -2.16 7.48 -1.75 7.45 -1.35 7.41 -0.95 7.36 -0.56 7.29 -0.16 7.22 0.22 7.13 0.61 7.04 0.98 6.93 1.36 6.81 1.73 6.69 2.09 6.55 2.45 6.39 2.81 6.23 3.16 6.05 3.51 5.87 3.86 5.66 4.2 5.45 4.53 5.22 4.86 4.99 5.18 4.73 5.5 4.47 5.82 4.19 6.12 3.9 6.42 3.6 6.72 3.28 7.01 2.95 7.29 2.61 7.57 2.25 7.84 1.88 8.1 1.5zm-10.99 -12.37l6.76 0.88 6.8 0.54 6.82 0.2 6.83 -0.13 6.83 -0.46 6.81 -0.78 6.79 -1.09 6.75 -1.4 6.7 -1.7 6.63 -1.99 6.55 -2.27 6.47 -2.55 6.36 -2.82 6.25 -3.08 6.12 -3.34 5.98 -3.59 5.83 -3.83 5.67 -4.06 5.5 -4.28 5.31 -4.5 5.11 -4.7 4.9 -4.91 4.68 -5.1 4.45 -5.28 4.21 -5.46 3.95 -5.62 3.68 -5.78 3.41 -5.93 3.12 -6.07 2.82 -6.2 2.51 -6.33 2.2 -6.44 1.85 -6.48 1.48 -6.42 1.12 -6.36 0.76 -6.28 0.41 -6.2 0.08 -6.11 -0.26 -6.01 -0.58 -5.9 -0.9 -5.79 -1.21 -5.66 -1.52 -5.52 -1.81 -5.38 -2.1 -5.23 -2.39 -5.07 -2.66 -4.91 -2.93 -4.73 -3.2 -4.55 -3.45 -4.36 -3.7 -4.17 -3.94 -3.96 -4.18 -3.75 -4.41 -3.53 -4.64 -3.31 -4.85 -3.07 -5.07 -2.83 -5.27 -2.58 -5.48 -2.33 -5.67 -2.07 -5.86 -1.8 -6.05 -1.52 -6.23 -1.24 -6.4 -0.94 -6.49 -0.64 -6.5 -0.33 -6.5 -0.02 -6.49 0.27 -6.47 0.56 -6.44 0.85 -6.41 1.12 -6.36 1.39 -6.31 1.66 -6.24 1.91 -6.17 2.17 -6.09 2.41 -6 2.65 -5.9 2.88 -5.79 3.11 -5.67 3.33 -5.54 3.55 -5.4 3.76 -5.25 3.97 -5.1 4.17 -4.93 4.36 -4.75 4.55 -4.57 4.74 -4.37 4.92 -4.17 5.09 -3.95 5.26 -3.73 5.43 -3.49 5.58 -3.24 5.74 -2.98 5.89 -2.71 6.03 -2.43 6.17 -2.12 6.23 -1.78 6.21 -1.44 6.18 -1.1 6.14 -0.77 6.1 -0.45 6.04 -0.12 5.98 0.2 5.9 0.51 5.82 0.82 5.73 1.13 5.63 1.44 5.52 1.74 5.4 2.03 5.27 2.33 5.13 2.62 4.99 2.9 4.83 3.18 4.66 3.46 4.48 3.73 4.29 4 4.1 4.26 3.89 4.52 3.66 4.78 3.44 5.03 3.19 5.27 2.95 5.51 2.68 5.75 2.41 5.98 2.13 6.2 1.84 6.42 1.53 6.64 1.22z"/>
    <g>
     <path class="fil65" d="M841.07 208.77l-22.95 11.23 -21.04 10.9 -19.18 10.53 -17.37 10.14 -15.6 9.7 -13.87 9.24 -12.19 8.74 -10.55 8.2 -8.94 7.62 -7.38 7.01 -5.85 6.36 -4.36 5.67 -2.91 4.94 -1.5 4.17 -0.13 3.36 1.2 2.51 2.49 1.63 3.74 0.7 4.95 -0.27 6.11 -1.27 7.23 -2.31 8.31 -3.39 9.34 -4.5 10.32 -5.66 11.25 -6.84 12.12 -8.05 12.95 -9.29 13.72 -10.56 14.43 -11.86 15.09 -13.17 15.69 -14.51 16.22 -15.86 -6.26 26.8 -4.82 25.42 -3.46 23.99 -2.18 22.51 -0.99 20.98 0.1 19.4 1.11 17.76 2.02 16.09 2.82 14.36 3.52 12.59 4.11 10.78 4.59 8.93 4.96 7.05 5.21 5.13 5.35 3.19 5.36 1.22 5.26 -0.76 5.04 -2.76 4.69 -4.76 4.23 -6.76 3.66 -8.76 2.96 -10.74 2.16 -12.71 1.25 -14.65 0.23 -16.56 -0.89 -18.43 -2.1 -20.25 -3.39 -22.03 -4.78 -23.74 -6.23 -25.39 -7.75 -26.97 -9.33 -28.48 13.51 10.29 12.46 8.79 11.41 7.35 10.36 5.98 9.31 4.67 8.28 3.45 7.25 2.3 6.24 1.23 5.25 0.24 4.28 -0.66 3.33 -1.46 2.4 -2.18 1.5 -2.82 0.63 -3.35 -0.21 -3.8 -1.03 -4.15 -1.81 -4.42 -2.56 -4.6 -3.28 -4.68 -3.97 -4.68 -4.64 -4.59 -5.26 -4.41 -5.87 -4.15 -6.44 -3.8 -6.98 -3.37 -7.5 -2.85 -7.99 -2.25 -8.45 -1.57 -8.89 -0.81 -9.31 0.04 -9.71 0.96 -10.09 1.97 -5.46 -26.34 -6.05 -24.21 -6.55 -22.16 -6.94 -20.17 -7.24 -18.25 -7.44 -16.39 -7.55 -14.59 -7.57 -12.84 -7.51 -11.13 -7.36 -9.46 -7.12 -7.83 -6.8 -6.23 -6.4 -4.66 -5.91 -3.11 -5.34 -1.58 -4.68 -0.07 -3.94 1.43 -3.1 2.92 -2.18 4.41 -1.16 5.9 -0.04 7.39 1.17 8.89 2.5 10.41 3.93 11.95 5.48 13.52 7.15 15.12 8.96 16.75 10.91 18.43 13 20.16 15.26 21.95 17.69 23.81 20.31 25.74zm0.29 0.36l0 0z"/>
     <polygon class="fil65" points="860.11,168.57 862.43,168.81 864.76,168.94 867.09,168.95 869.42,168.86 871.76,168.66 874.08,168.36 876.39,167.96 878.69,167.46 880.97,166.87 883.23,166.18 885.46,165.39 887.66,164.52 889.83,163.57 891.95,162.52 894.04,161.4 896.08,160.19 898.07,158.91 900.01,157.55 901.89,156.12 903.7,154.63 905.46,153.06 907.14,151.43 908.75,149.73 910.29,147.97 911.74,146.16 913.11,144.29 914.4,142.37 915.59,140.4 916.68,138.38 917.68,136.31 918.58,134.2 919.37,132.06 920.04,129.89 920.58,127.75 921.01,125.62 921.31,123.52 921.49,121.44 921.56,119.39 921.51,117.37 921.35,115.39 921.08,113.44 920.7,111.53 920.21,109.66 919.63,107.84 918.93,106.07 918.14,104.35 917.25,102.69 916.27,101.08 915.19,99.53 914.02,98.04 912.76,96.62 911.41,95.27 909.97,93.99 908.45,92.78 906.85,91.65 905.17,90.6 903.42,89.63 901.58,88.75 899.67,87.95 897.69,87.25 895.64,86.63 893.52,86.11 891.34,85.7 889.09,85.38 886.8,85.17 884.51,85.07 882.21,85.07 879.92,85.18 877.63,85.39 875.36,85.69 873.09,86.1 870.84,86.6 868.6,87.19 866.39,87.87 864.21,88.64 862.05,89.49 859.93,90.43 857.85,91.45 855.8,92.55 853.8,93.72 851.84,94.97 849.94,96.29 848.09,97.69 846.3,99.15 844.57,100.67 842.9,102.26 841.3,103.92 839.78,105.63 838.33,107.4 836.95,109.23 835.67,111.11 834.47,113.04 833.36,115.02 832.34,117.05 831.42,119.13 830.6,121.24 829.9,123.38 829.32,125.5 828.85,127.6 828.51,129.69 828.29,131.76 828.17,133.8 828.17,135.82 828.29,137.8 828.51,139.76 828.84,141.67 829.28,143.55 829.83,145.39 830.47,147.18 831.22,148.92 832.07,150.62 833.02,152.26 834.06,153.84 835.2,155.36 836.43,156.82 837.76,158.21 839.17,159.53 840.67,160.78 842.26,161.95 843.93,163.04 845.68,164.06 847.52,164.98 849.43,165.82 851.42,166.56 853.49,167.22 855.62,167.77 857.83,168.22 "/>
    </g>
   </g>
   <path class="fil66" d="M148.45 484.12l5.45 0 3.1 -7.33c2.13,-5.26 4.31,-10.7 6.53,-16.28 2.23,-5.58 4.15,-10.91 5.78,-16 0.56,0 1.38,0.08 2.44,0.2 1.07,0.14 1.85,0.2 2.35,0.2 0.56,0 1.38,-0.06 2.44,-0.2 1.06,-0.12 1.85,-0.2 2.35,-0.2 1.5,4.4 3.02,8.79 4.56,13.18 1.54,4.39 3.09,8.78 4.65,13.18 0.63,1.69 2.32,6.11 5.08,13.26l4.79 0c-0.12,0.44 -0.23,0.99 -0.33,1.65 -0.09,0.66 -0.14,1.46 -0.14,2.4 0,0.81 0.03,1.5 0.09,2.07 0.06,0.56 0.19,1.25 0.38,2.07l-0.94 0c-1.38,-1.5 -3.53,-2.33 -6.44,-2.49 -2.91,-0.16 -7.35,-0.24 -13.3,-0.24l-8.18 0c-5.89,0 -10.25,0.08 -13.07,0.24 -2.82,0.16 -5.08,0.99 -6.77,2.49l-0.85 0c0.13,-0.38 0.24,-0.94 0.33,-1.69 0.09,-0.75 0.14,-1.57 0.14,-2.44 0,-0.75 -0.03,-1.47 -0.09,-2.16 -0.06,-0.69 -0.19,-1.32 -0.38,-1.88zm12.5 0l18.24 0 -8.74 -26.73c-1.82,4.91 -3.04,8.19 -3.67,9.89 -2.13,5.77 -4.07,11.39 -5.83,16.84zm90.95 -39.58l0 28.68c3.13,-3.97 6.39,-8.49 9.78,-13.59 2.57,-3.9 5.7,-8.93 9.4,-15.09l4.89 0.28 4.7 -0.28 0 45.5c-0.69,0 -1.9,-0.08 -3.62,-0.23 -1.72,-0.16 -2.68,-0.24 -2.87,-0.24 -1.07,0 -1.88,0.01 -2.44,0.06 -0.56,0.03 -1.91,0.17 -4.04,0.41l0 -29.05c-3.63,4.65 -7.15,9.56 -10.53,14.71 -3.01,4.59 -5.89,9.37 -8.65,14.34 -0.31,0 -1,-0.08 -2.07,-0.23 -1.07,-0.16 -1.94,-0.24 -2.63,-0.24 -1.13,0 -2.15,0.08 -3.06,0.24 -0.91,0.16 -1.52,0.23 -1.83,0.23l0 -45.5c1.82,0.13 3.16,0.22 4.04,0.28 0.88,0.06 1.69,0.09 2.44,0.09 1.82,0 3.16,-0.03 4.04,-0.09 1.13,-0.19 1.94,-0.28 2.44,-0.28zm110.51 10.72c0,3.01 -0.96,5.36 -2.87,7.05 -1.91,1.69 -4.59,2.7 -8.04,3.01 4.2,0.56 7.46,1.74 9.78,3.53 2.32,1.79 3.48,4.47 3.48,8.04 0,4.26 -2.1,7.62 -6.3,10.06 -4.2,2.44 -9.43,3.67 -15.7,3.67 -3.89,0 -7.44,-0.25 -10.67,-0.75 -3.23,-0.5 -5.69,-1.25 -7.38,-2.26 0.38,-1.13 0.8,-2.35 1.27,-3.67 0.47,-1.32 0.77,-2.44 0.89,-3.38l0.75 0c1.13,1.76 2.85,3.06 5.17,3.9 2.32,0.85 4.86,1.27 7.62,1.27 3.26,0 5.92,-0.78 7.99,-2.35 2.07,-1.57 3.1,-3.73 3.1,-6.49 0,-2.95 -0.88,-5.12 -2.63,-6.53 -1.76,-1.41 -4.14,-2.12 -7.15,-2.12l-4.79 0 0 -5.36c0.81,0.06 1.65,0.11 2.46,0.14 0.83,0.03 1.61,0.05 2.37,0.05 2.48,0 4.36,-0.69 5.69,-2.07 1.33,-1.38 1.99,-3.29 1.99,-5.73 0,-4.95 -3.06,-7.43 -9.15,-7.43 -2.33,0 -4.61,0.44 -6.8,1.32 -2.21,0.88 -3.59,2.07 -4.15,3.57l-0.85 0c-0.58,-2.19 -1.33,-4.48 -2.27,-6.86 1.94,-0.75 4.48,-1.33 7.62,-1.74 3.14,-0.41 6.17,-0.61 9.12,-0.61 5.89,0 10.61,1 14.15,3.01 3.54,2.01 5.31,4.92 5.31,8.74zm82.77 0.85l0 25.76c0,1.63 0.34,2.76 1.03,3.39 0.69,0.63 1.97,0.94 3.86,0.94l0 2.16c-1.07,0.5 -2.49,1.05 -4.25,1.65 -1.77,0.59 -3.23,0.89 -4.36,0.89 -2.21,0 -4.1,-0.6 -5.72,-1.79 -1.6,-1.19 -2.79,-2.88 -3.54,-5.08 -1.25,2.19 -2.93,3.89 -5.06,5.08 -2.12,1.19 -4.44,1.79 -6.93,1.79 -4,0 -7.21,-1.07 -9.65,-3.2 -2.43,-2.13 -3.65,-5.2 -3.65,-9.21 0,-4.2 1.38,-7.36 4.12,-9.49 2.26,-1.76 6.55,-3.42 12.93,-4.98 1.5,-0.38 2.65,-0.69 3.46,-0.94 1.32,-0.44 2.44,-0.94 3.37,-1.5 0.5,-0.5 0.86,-1.03 1.08,-1.6 0.22,-0.56 0.33,-1.25 0.33,-2.07 0,-2.19 -0.92,-4.12 -2.76,-5.78 -1.85,-1.66 -3.89,-2.49 -6.14,-2.49 -2.68,0 -5.27,0.75 -7.76,2.26 -2.07,1.25 -3.29,2.44 -3.65,3.57l-0.66 0 -1.22 -5.55c2.07,-2.01 4.7,-3.56 7.9,-4.65 3.2,-1.1 6.36,-1.65 9.49,-1.65 4.64,0 8.59,0.91 11.85,2.73 3.95,2.19 5.92,5.45 5.92,9.78zm-12.98 18.52l0 -9.12c-1.88,0.63 -3.38,1.13 -4.51,1.5 -2.07,0.75 -3.68,1.57 -4.84,2.44 -1.16,0.88 -1.94,1.96 -2.35,3.24 -0.41,1.29 -0.61,2.84 -0.61,4.65 0,2.01 0.39,3.74 1.17,5.22 0.78,1.47 2.08,2.21 3.9,2.21 2.7,0 4.64,-1.1 5.83,-3.29 0.94,-1.69 1.41,-3.98 1.41,-6.86zm74.31 -30.09l0 28.68c3.13,-3.97 6.39,-8.49 9.78,-13.59 2.57,-3.9 5.7,-8.93 9.4,-15.09l4.89 0.28 4.7 -0.28 0 45.5c-0.69,0 -1.9,-0.08 -3.62,-0.23 -1.72,-0.16 -2.68,-0.24 -2.87,-0.24 -1.07,0 -1.88,0.01 -2.44,0.06 -0.56,0.03 -1.91,0.17 -4.04,0.41l0 -29.05c-3.63,4.65 -7.15,9.56 -10.53,14.71 -3.01,4.59 -5.89,9.37 -8.65,14.34 -0.31,0 -1,-0.08 -2.07,-0.23 -1.07,-0.16 -1.94,-0.24 -2.63,-0.24 -1.13,0 -2.15,0.08 -3.06,0.24 -0.91,0.16 -1.52,0.23 -1.83,0.23l0 -45.5c1.82,0.13 3.16,0.22 4.04,0.28 0.88,0.06 1.69,0.09 2.44,0.09 1.82,0 3.16,-0.03 4.04,-0.09 1.13,-0.19 1.94,-0.28 2.44,-0.28zm-11.09 -12.27l3.1 -4.21c2.51,2.36 5.06,4.14 7.66,5.31 2.6,1.18 5.28,1.77 8.04,1.77 5.58,0 10.97,-2.37 16.17,-7.08l3.01 4.12c-2.63,2.62 -5.62,4.62 -8.98,6.03 -3.35,1.39 -6.78,2.1 -10.29,2.1 -3.45,0 -6.74,-0.66 -9.87,-1.96 -3.13,-1.31 -6.08,-3.34 -8.84,-6.08zm100.07 12.27l0 18.71 15.79 0 0 -18.71c1.82,0.19 3.03,0.3 3.62,0.33 0.6,0.03 1.55,0.05 2.87,0.05 1.82,0 3.16,-0.03 4.04,-0.09 1.13,-0.19 1.94,-0.28 2.45,-0.28l0 45.5c-0.69,0 -1.9,-0.08 -3.62,-0.23 -1.72,-0.16 -2.68,-0.24 -2.87,-0.24 -1.07,0 -1.88,0.01 -2.44,0.06 -0.56,0.03 -1.91,0.17 -4.04,0.41l0 -21.06 -15.79 0 0 21.06c-0.69,0 -1.9,-0.08 -3.62,-0.23 -1.72,-0.16 -2.68,-0.24 -2.87,-0.24 -1.07,0 -1.88,0.01 -2.44,0.06 -0.56,0.03 -1.91,0.17 -4.04,0.41l0 -45.5c1.82,0.13 3.16,0.22 4.04,0.28 0.88,0.06 1.69,0.09 2.44,0.09 1.82,0 3.16,-0.03 4.04,-0.09 1.13,-0.19 1.94,-0.28 2.44,-0.28zm74.69 29.15l0 -10.06 23.5 0 0 10.06 -23.5 0zm107.87 -25.95l-3.57 9.78 -2.16 0c-0.38,-2.82 -1.35,-5.11 -2.91,-6.86 -1.76,-1.94 -4.01,-2.92 -6.77,-2.92 -3.95,0 -6.96,2.19 -9.02,6.58 -1.63,3.45 -2.44,7.46 -2.44,12.03 0,5.89 1.13,10.43 3.38,13.63 2.26,3.2 5.86,4.8 10.81,4.8 1.88,0 3.71,-0.39 5.5,-1.18 1.79,-0.78 3.24,-1.86 4.37,-3.24l1.6 1.31 -2.35 5.55c-1.13,1.13 -3.02,2.02 -5.69,2.68 -2.66,0.66 -4.97,0.99 -6.91,0.99 -7.46,0 -13.38,-1.94 -17.77,-5.83 -4.58,-4.07 -6.86,-9.71 -6.86,-16.92 0,-7.52 2.24,-13.49 6.72,-17.91 4.48,-4.42 10.48,-6.63 18,-6.63 2.88,0 5.74,0.33 8.55,0.99 2.82,0.66 5.33,1.71 7.52,3.15zm79.95 3.1c-2.44,-0.25 -4.51,-0.46 -6.21,-0.61 -1.69,-0.16 -4.45,-0.24 -8.27,-0.24l0 40.05c-0.69,0 -1.9,-0.08 -3.62,-0.23 -1.72,-0.16 -2.68,-0.24 -2.87,-0.24 -0.69,0 -1.91,0.08 -3.67,0.24 -1.76,0.16 -2.7,0.23 -2.82,0.23l0 -40.05c-4.2,0 -7.02,0.06 -8.46,0.19 -2.13,0.31 -4.1,0.53 -5.92,0.66 0,-0.38 0.08,-0.97 0.24,-1.79 0.16,-0.82 0.23,-1.29 0.23,-1.41 0,-0.44 -0.08,-1.05 -0.23,-1.83 -0.16,-0.78 -0.24,-1.21 -0.24,-1.27l20.87 0 20.97 0c0,0.38 -0.08,0.96 -0.24,1.74 -0.16,0.78 -0.24,1.24 -0.24,1.36 0,0.44 0.08,1.05 0.24,1.83 0.16,0.78 0.24,1.24 0.24,1.36zm45.45 63.08l11.94 -24.26 -18.99 -45.13c0.69,0 1.85,0.06 3.48,0.19 1.63,0.12 2.85,0.19 3.65,0.19 0.82,0 2.01,-0.06 3.57,-0.19 1.57,-0.13 2.76,-0.19 3.57,-0.19 1.25,3.51 2.6,7.18 4.04,11 1.74,4.64 4.15,10.67 7.22,18.13l3.62 -9.57c2.38,-6.52 4.75,-13.04 7.13,-19.56l3.85 0 3.85 0 -9.49 21.44c-3.95,9.09 -7.33,17.02 -10.15,23.79 -3.2,7.71 -6.33,15.76 -9.4,24.16 -0.94,-0.19 -1.91,-0.28 -2.91,-0.28l-1.03 0c-0.69,0 -1.33,0 -1.93,0 -0.59,0 -1.27,0.09 -2.02,0.28zm73.37 -29.8l5.45 0 3.1 -7.33c2.13,-5.26 4.31,-10.7 6.53,-16.28 2.23,-5.58 4.15,-10.91 5.78,-16 0.56,0 1.38,0.08 2.44,0.2 1.07,0.14 1.85,0.2 2.35,0.2 0.56,0 1.38,-0.06 2.44,-0.2 1.06,-0.12 1.85,-0.2 2.35,-0.2 1.5,4.4 3.02,8.79 4.56,13.18 1.54,4.39 3.09,8.78 4.65,13.18 0.63,1.69 2.32,6.11 5.08,13.26l4.79 0c-0.12,0.44 -0.23,0.99 -0.33,1.65 -0.09,0.66 -0.14,1.46 -0.14,2.4 0,0.81 0.03,1.5 0.09,2.07 0.06,0.56 0.19,1.25 0.38,2.07l-0.94 0c-1.38,-1.5 -3.53,-2.33 -6.44,-2.49 -2.91,-0.16 -7.35,-0.24 -13.3,-0.24l-8.18 0c-5.89,0 -10.25,0.08 -13.07,0.24 -2.82,0.16 -5.08,0.99 -6.77,2.49l-0.85 0c0.13,-0.38 0.24,-0.94 0.33,-1.69 0.09,-0.75 0.14,-1.57 0.14,-2.44 0,-0.75 -0.03,-1.47 -0.09,-2.16 -0.06,-0.69 -0.19,-1.32 -0.38,-1.88zm12.5 0l18.24 0 -8.74 -26.73c-1.82,4.91 -3.04,8.19 -3.67,9.89 -2.13,5.77 -4.07,11.39 -5.83,16.84zm90.95 -39.58l0 28.68c3.13,-3.97 6.39,-8.49 9.78,-13.59 2.57,-3.9 5.7,-8.93 9.4,-15.09l4.89 0.28 4.7 -0.28 0 45.5c-0.69,0 -1.9,-0.08 -3.62,-0.23 -1.72,-0.16 -2.68,-0.24 -2.87,-0.24 -1.07,0 -1.88,0.01 -2.44,0.06 -0.56,0.03 -1.91,0.17 -4.04,0.41l0 -29.05c-3.63,4.65 -7.15,9.56 -10.53,14.71 -3.01,4.59 -5.89,9.37 -8.65,14.34 -0.31,0 -1,-0.08 -2.07,-0.23 -1.07,-0.16 -1.94,-0.24 -2.63,-0.24 -1.13,0 -2.15,0.08 -3.06,0.24 -0.91,0.16 -1.52,0.23 -1.83,0.23l0 -45.5c1.82,0.13 3.16,0.22 4.04,0.28 0.88,0.06 1.69,0.09 2.44,0.09 1.82,0 3.16,-0.03 4.04,-0.09 1.13,-0.19 1.94,-0.28 2.44,-0.28zm79.29 45.03c-1.25,0 -2.59,0.03 -4,0.11 -1.41,0.08 -2.71,0.19 -3.9,0.35 2.26,-2.84 4.7,-6.02 7.33,-9.54 3.26,-4.4 5.74,-7.74 7.43,-10 -2.95,-0.5 -5.55,-1.79 -7.8,-3.86 -2.95,-2.63 -4.42,-5.86 -4.42,-9.68 0,-4.2 1.63,-7.32 4.89,-9.35 3.26,-2.04 7.62,-3.06 13.07,-3.06l20.59 0 0 45.41c-0.94,-0.12 -1.94,-0.22 -3.01,-0.28 -1.06,-0.06 -2.1,-0.09 -3.1,-0.09 -1.13,0 -2.29,0.03 -3.48,0.11 -1.19,0.08 -2.32,0.19 -3.38,0.35l0 -19.16 -0.47 0c-1.44,1.94 -3.38,4.87 -5.83,8.77 -2.19,3.46 -4.36,6.93 -6.49,10.39 -1.13,-0.16 -2.35,-0.27 -3.67,-0.35 -1.32,-0.08 -2.57,-0.11 -3.76,-0.11zm20.21 -23.6l0 -16.26 -2.91 0c-2.76,0 -5.01,0.67 -6.77,2.01 -1.76,1.35 -2.63,3.23 -2.63,5.66 0,2.74 0.92,4.86 2.77,6.36 1.85,1.49 4.06,2.24 6.63,2.24l2.91 0z"/>
   <circle class="fil49 str1" transform="matrix(2.22572 -0.995095 0.784853 1.81165 875.453 127.035)" r="20.26"/>
  </g>
 </g>
</svg>
